<mxfile host="app.diagrams.net" agent="Mozilla/5.0 (Windows NT 10.0; Win64; x64) AppleWebKit/537.36 (KHTML, like Gecko) Chrome/134.0.0.0 Safari/537.36" version="26.2.5" pages="2">
  <diagram name="第 1 页" id="If8EhO-yljV1GiDXnM34">
    <mxGraphModel dx="930" dy="605" grid="1" gridSize="10" guides="1" tooltips="1" connect="1" arrows="1" fold="1" page="1" pageScale="1" pageWidth="827" pageHeight="1169" math="0" shadow="0">
      <root>
        <mxCell id="0" />
        <mxCell id="1" parent="0" />
        <mxCell id="mEITe9tLx34EXLdKmBu--24" style="rounded=0;orthogonalLoop=1;jettySize=auto;html=1;entryX=0;entryY=0.5;entryDx=0;entryDy=0;fontSize=16;" edge="1" parent="1" source="mEITe9tLx34EXLdKmBu--1" target="mEITe9tLx34EXLdKmBu--2">
          <mxGeometry relative="1" as="geometry" />
        </mxCell>
        <mxCell id="mEITe9tLx34EXLdKmBu--25" style="edgeStyle=none;shape=connector;rounded=0;orthogonalLoop=1;jettySize=auto;html=1;entryX=0;entryY=0.5;entryDx=0;entryDy=0;strokeColor=default;align=center;verticalAlign=middle;fontFamily=Helvetica;fontSize=16;fontColor=default;labelBackgroundColor=default;endArrow=classic;" edge="1" parent="1" source="mEITe9tLx34EXLdKmBu--1" target="mEITe9tLx34EXLdKmBu--3">
          <mxGeometry relative="1" as="geometry" />
        </mxCell>
        <mxCell id="mEITe9tLx34EXLdKmBu--26" style="edgeStyle=none;shape=connector;rounded=0;orthogonalLoop=1;jettySize=auto;html=1;entryX=0;entryY=0.5;entryDx=0;entryDy=0;strokeColor=default;align=center;verticalAlign=middle;fontFamily=Helvetica;fontSize=16;fontColor=default;labelBackgroundColor=default;endArrow=classic;" edge="1" parent="1" source="mEITe9tLx34EXLdKmBu--1" target="mEITe9tLx34EXLdKmBu--4">
          <mxGeometry relative="1" as="geometry" />
        </mxCell>
        <mxCell id="mEITe9tLx34EXLdKmBu--1" value="用户" style="shape=umlActor;verticalLabelPosition=bottom;verticalAlign=top;html=1;outlineConnect=0;fontSize=16;" vertex="1" parent="1">
          <mxGeometry x="170" y="240" width="30" height="60" as="geometry" />
        </mxCell>
        <mxCell id="mEITe9tLx34EXLdKmBu--2" value="检索知识" style="ellipse;whiteSpace=wrap;html=1;fontSize=16;" vertex="1" parent="1">
          <mxGeometry x="280" y="170" width="120" height="40" as="geometry" />
        </mxCell>
        <mxCell id="mEITe9tLx34EXLdKmBu--3" value="可视化知识库" style="ellipse;whiteSpace=wrap;html=1;fontSize=16;" vertex="1" parent="1">
          <mxGeometry x="280" y="260" width="120" height="40" as="geometry" />
        </mxCell>
        <mxCell id="mEITe9tLx34EXLdKmBu--4" value="知识推理" style="ellipse;whiteSpace=wrap;html=1;fontSize=16;" vertex="1" parent="1">
          <mxGeometry x="280" y="360" width="120" height="40" as="geometry" />
        </mxCell>
        <mxCell id="mEITe9tLx34EXLdKmBu--8" value="输入查询信息" style="ellipse;whiteSpace=wrap;html=1;fontSize=16;" vertex="1" parent="1">
          <mxGeometry x="520" y="110" width="120" height="40" as="geometry" />
        </mxCell>
        <mxCell id="mEITe9tLx34EXLdKmBu--9" value="切换视图" style="ellipse;whiteSpace=wrap;html=1;fontSize=16;" vertex="1" parent="1">
          <mxGeometry x="520" y="250" width="120" height="40" as="geometry" />
        </mxCell>
        <mxCell id="mEITe9tLx34EXLdKmBu--10" value="调用推理模型" style="ellipse;whiteSpace=wrap;html=1;fontSize=16;" vertex="1" parent="1">
          <mxGeometry x="520" y="370" width="120" height="40" as="geometry" />
        </mxCell>
        <mxCell id="mEITe9tLx34EXLdKmBu--11" value="输入查询问题" style="ellipse;whiteSpace=wrap;html=1;fontSize=16;" vertex="1" parent="1">
          <mxGeometry x="520" y="310" width="120" height="40" as="geometry" />
        </mxCell>
        <mxCell id="mEITe9tLx34EXLdKmBu--14" value="" style="endArrow=classic;html=1;rounded=0;dashed=1;entryX=0;entryY=0.5;entryDx=0;entryDy=0;fontSize=16;exitX=1;exitY=0.5;exitDx=0;exitDy=0;" edge="1" parent="1" source="mEITe9tLx34EXLdKmBu--3" target="mEITe9tLx34EXLdKmBu--9">
          <mxGeometry relative="1" as="geometry">
            <mxPoint x="400" y="269.66" as="sourcePoint" />
            <mxPoint x="500" y="269.66" as="targetPoint" />
          </mxGeometry>
        </mxCell>
        <mxCell id="mEITe9tLx34EXLdKmBu--15" value="&amp;lt;&amp;lt;包含&amp;gt;&amp;gt;" style="edgeLabel;resizable=0;html=1;;align=center;verticalAlign=middle;fontSize=16;" connectable="0" vertex="1" parent="mEITe9tLx34EXLdKmBu--14">
          <mxGeometry relative="1" as="geometry" />
        </mxCell>
        <mxCell id="mEITe9tLx34EXLdKmBu--20" value="" style="endArrow=classic;html=1;rounded=0;dashed=1;entryX=0;entryY=0.5;entryDx=0;entryDy=0;fontSize=16;exitX=0.996;exitY=0.354;exitDx=0;exitDy=0;exitPerimeter=0;" edge="1" parent="1" source="mEITe9tLx34EXLdKmBu--4" target="mEITe9tLx34EXLdKmBu--11">
          <mxGeometry relative="1" as="geometry">
            <mxPoint x="400" y="349.66" as="sourcePoint" />
            <mxPoint x="500" y="349.66" as="targetPoint" />
          </mxGeometry>
        </mxCell>
        <mxCell id="mEITe9tLx34EXLdKmBu--21" value="&amp;lt;&amp;lt;包含&amp;gt;&amp;gt;" style="edgeLabel;resizable=0;html=1;;align=center;verticalAlign=middle;fontSize=16;" connectable="0" vertex="1" parent="mEITe9tLx34EXLdKmBu--20">
          <mxGeometry relative="1" as="geometry" />
        </mxCell>
        <mxCell id="mEITe9tLx34EXLdKmBu--22" value="" style="endArrow=classic;html=1;rounded=0;dashed=1;entryX=0;entryY=0.5;entryDx=0;entryDy=0;exitX=1;exitY=0.5;exitDx=0;exitDy=0;fontSize=16;" edge="1" parent="1" source="mEITe9tLx34EXLdKmBu--4" target="mEITe9tLx34EXLdKmBu--10">
          <mxGeometry relative="1" as="geometry">
            <mxPoint x="420" y="380" as="sourcePoint" />
            <mxPoint x="520" y="380" as="targetPoint" />
          </mxGeometry>
        </mxCell>
        <mxCell id="mEITe9tLx34EXLdKmBu--23" value="&amp;lt;&amp;lt;包含&amp;gt;&amp;gt;" style="edgeLabel;resizable=0;html=1;;align=center;verticalAlign=middle;fontSize=16;" connectable="0" vertex="1" parent="mEITe9tLx34EXLdKmBu--22">
          <mxGeometry relative="1" as="geometry" />
        </mxCell>
        <mxCell id="mEITe9tLx34EXLdKmBu--27" value="获得推理答案及证据" style="ellipse;whiteSpace=wrap;html=1;fontSize=16;" vertex="1" parent="1">
          <mxGeometry x="520" y="430" width="120" height="40" as="geometry" />
        </mxCell>
        <mxCell id="mEITe9tLx34EXLdKmBu--28" value="" style="endArrow=classic;html=1;rounded=0;dashed=1;entryX=0;entryY=0.5;entryDx=0;entryDy=0;fontSize=16;exitX=1;exitY=0.5;exitDx=0;exitDy=0;" edge="1" parent="1" source="mEITe9tLx34EXLdKmBu--4" target="mEITe9tLx34EXLdKmBu--27">
          <mxGeometry relative="1" as="geometry">
            <mxPoint x="400" y="350" as="sourcePoint" />
            <mxPoint x="560" y="480" as="targetPoint" />
          </mxGeometry>
        </mxCell>
        <mxCell id="mEITe9tLx34EXLdKmBu--29" value="&amp;lt;&amp;lt;包含&amp;gt;&amp;gt;" style="edgeLabel;resizable=0;html=1;;align=center;verticalAlign=middle;fontSize=16;" connectable="0" vertex="1" parent="mEITe9tLx34EXLdKmBu--28">
          <mxGeometry relative="1" as="geometry" />
        </mxCell>
        <mxCell id="mEITe9tLx34EXLdKmBu--30" value="展示查询结果" style="ellipse;whiteSpace=wrap;html=1;fontSize=16;" vertex="1" parent="1">
          <mxGeometry x="520" y="180" width="120" height="40" as="geometry" />
        </mxCell>
        <mxCell id="mEITe9tLx34EXLdKmBu--31" value="" style="endArrow=classic;html=1;rounded=0;dashed=1;exitX=1.008;exitY=0.399;exitDx=0;exitDy=0;exitPerimeter=0;entryX=0;entryY=0.5;entryDx=0;entryDy=0;fontSize=16;" edge="1" parent="1" source="mEITe9tLx34EXLdKmBu--2" target="mEITe9tLx34EXLdKmBu--8">
          <mxGeometry relative="1" as="geometry">
            <mxPoint x="430" y="160" as="sourcePoint" />
            <mxPoint x="530" y="160" as="targetPoint" />
          </mxGeometry>
        </mxCell>
        <mxCell id="mEITe9tLx34EXLdKmBu--32" value="&amp;lt;&amp;lt;包含&amp;gt;&amp;gt;" style="edgeLabel;resizable=0;html=1;;align=center;verticalAlign=middle;fontSize=16;" connectable="0" vertex="1" parent="mEITe9tLx34EXLdKmBu--31">
          <mxGeometry relative="1" as="geometry" />
        </mxCell>
        <mxCell id="mEITe9tLx34EXLdKmBu--33" value="" style="endArrow=classic;html=1;rounded=0;dashed=1;exitX=1;exitY=0.5;exitDx=0;exitDy=0;entryX=0;entryY=0.5;entryDx=0;entryDy=0;fontSize=16;" edge="1" parent="1" source="mEITe9tLx34EXLdKmBu--2" target="mEITe9tLx34EXLdKmBu--30">
          <mxGeometry relative="1" as="geometry">
            <mxPoint x="430" y="200" as="sourcePoint" />
            <mxPoint x="530" y="200" as="targetPoint" />
          </mxGeometry>
        </mxCell>
        <mxCell id="mEITe9tLx34EXLdKmBu--34" value="&amp;lt;&amp;lt;包含&amp;gt;&amp;gt;" style="edgeLabel;resizable=0;html=1;;align=center;verticalAlign=middle;fontSize=16;" connectable="0" vertex="1" parent="mEITe9tLx34EXLdKmBu--33">
          <mxGeometry relative="1" as="geometry" />
        </mxCell>
      </root>
    </mxGraphModel>
  </diagram>
  <diagram id="fHz9jvQwTk2wjMX0ytUp" name="第 2 页">
    <mxGraphModel dx="2325" dy="1513" grid="1" gridSize="10" guides="1" tooltips="1" connect="1" arrows="1" fold="1" page="1" pageScale="1" pageWidth="827" pageHeight="1169" math="0" shadow="0">
      <root>
        <mxCell id="0" />
        <mxCell id="1" parent="0" />
        <mxCell id="r5Sx6mc3QP88m5BgNGdM-3" value="" style="shape=image;verticalLabelPosition=bottom;labelBackgroundColor=default;verticalAlign=top;aspect=fixed;imageAspect=0;image=data:image/png,iVBORw0KGgoAAAANSUhEUgAAAsQAAAYyCAMAAAAPDwimAAAAAXNSR0IArs4c6QAAAARnQU1BAACxjwv8YQUAAAEjUExURQAAAAAAAAAAAAAAAAAAAAAAAAAAAAAAAAAAAAAAAAAAAAAAAAAAAAAAAAAAAAAAAEBAQHBwcJ+fn7+/v8/Pz////9fX16enp3h4eBAQEDAwMH9/f9/f35eXl0hISAAAACAgIIeHh+/v7zg4OAAAAAAAAAAAAFBQUAAAAAAAAAAAAK+vrwAAAAAAAAgICPf39xgYGAEBAefn5w8PDwAAAAEBAQAAAFhYWAAAAGBgYAAAAAAAALe3twAAAAcHB4+Pj8fHxwAAACgoKGhoaAAAABcXFwEBAQAAAAAAAAAAAAAAAAYGBhEREWNjYy4uLhISEgAAAAAAAAAAAAICAg8PDzo6OgAAAJqamgAAAAMDA62trVpaWgAAAK6urgAAAAAAAKGhoUTv0aMAAABgdFJOUwAIQHCAr7/P/98QUJ/nYO////////////////////94//////eP1/9oGKf/xzD////4//4g8Dj/SP+3KP9Y/v//l///h/7oqcvb6f//////69GI////rv+o////+//qLx8dd/gAAAAJcEhZcwAAFxEAABcRAcom8z8AAIRzSURBVHhe7f0Ln+LGsrcLrm53t8N2ty0QVAGiMEW1zbJxCzbLe5VZxqZMrf2emXnncuZ2LnP//p9iIjNDUkoIKqkS6hT8n5/dJe4gHgWRmZGpv52OV6+/ePP23bsvqXl89e7duzdvXn8tnwRcJt+8/0qEaDIf3n4LkS+U1++/UwoErXYYhp1u87ji933dC/rqU7z9Vj4VuCC+VQnEILoSIZrM8GbEn+XD9wjHl8UXH4jGt0OxoPlM2ndEH3+AxpfD6x85CLfl+z8XwinRd3+XTwjOnJ9+5ig8k6/+nOgERL98kk8JzpnXHyi+ncv3fmbMFvQfCMbnzxuiYCnf+fkxbxH9jMz4vPn6HVEkX/h5MvsH/firfFpwjnz9JS1C+bbPlasBfUBifL78+iWNz6dbbR/zEf3nP+UTg3Pj169oMJFv+pyZ39PH3+Qzg/OCc4mLcJhZ0X8iozhHXv3rYhzudqf01U/yucEZ8f4S8uGE+R19+Uo+ODgbvqd/nEOxjyuTMb2XTw7Ohd//g9by/V4Gw5jQuDszfqGVfLuXwg19QFp8VnxPi4tp1CUE9LN8enAOXFwyoeCE4g/5/OAMuLxkQtFGQnFGXGIyoRjRv2QPgKZzkcmEYvkPwvzRM+HtRSYTCk4oMORxFvxK8flWwT/BAKH4PPjhYgOx6iz+UvYCaDKvPlITV0aphvmCUFp8BnxBgXyjl0iL3sp+AA3mA53j9HxXln9+RF9x4/mGxvJ9XiZT+kH2BGgsv9BGvs7L5AG9bI3nE8VnulCKKwPCcioN5y9qyZd5qbTpF9kXoKF8Ree+zsRTTGLCkkCN5nfqy3d5uQQYtWs2X1zwaF3CLWbbNZt35O0yxMteTZOvr+g72Rugibz6SN4UEkfb1oNsanpEo3oKk8aElVQazCcayBf5+XkkCqwjar6obW3DFTrZmswX9Chf5OlQ5y7ah50w3OeHDq+ptn6TDf0l+wM0kPd0I1/k6RBfS7ElDvIH1KC+DuwO6jGbzJc1VGGGoY6oY8vYsW5OPoShPVi4zY1/z2qs1J/HhJHnxvKKYvkeT8+uxAVie6LffCsL1rdzjb0TMUBRcXP5tcZ23VMSL4msteA2tNBRekXjGrpPVvSN7BHQOF7TSL7G0/OUxA9EssXMF3KPkGiqN05Kj76QPQIax7c1dE4kPCXxNW3136VKhSO60xfUVg2lojeoKW4ub+hWvsbTc0jiYBAEW+oHY9VjMVPxN05Ti8DaPhVrzFFqLu/pWr7G03NQYt3fJnS6V33r4Fou6O7UFc9XqMZsLj/XWId5SOJZGHa3+oDqEM3bMY3DcBZpWio8n/rMekP6SvYIaBzvPJGYmZiRjxmN1VhdgfjEvdmQuMG8q3HFif5hiWemsPmGRmrsgYJgGkWbUA+HLONTd6JMUMfWXL6yxDoNnTBpldljzKnED2FyFEWmK62n+ks6hXcVrU7dV0wkewQ0jtNLnGuylZEs3BKYtty0xv4SC0jcXD7UIfE4UAxUipAQ01b+JhJzCiEVFp9lJRdI3FxOH4lTru3JfLs5cWhWDpDmXe1A4ubyi12ucFpu7TKNXYlbJiSvaaH+jCRSKwY1TGWdQ+LmUmMX26Pdw7Ar8dj0BT+a5t1KEmbD6ZfZQhdbg3lbn8Qje1r1jsQhmer8sfnTsoY32jUs2gmJG8z7+ppRY7vbYUfidV/X+TxIShzVLvGPskdA4/h3bYsJsp5W+r2bTiw5g7ifr6R4rW6JQ5xFqbn8vbZ5bCsptDTsStztzmK6i2XKX90StzFTtLn8RvfyNZ6YSWxpWS6xTinMdI7aJY7oe9kjoHF8SmvPT8wml02US6wKf2Jzfd0SP2I1tubytemWPTlXcX7Jt3KJ71R/ms5v6pZ4RK9lj4DmcfpxZ8VkTIvc/PtSiTlatwdEU84o6pa4j8VdG8zbWvrYRqynbBrKJF6r2veJKrGoXeIrdBM3me9r6J6Yr6hYD1wicTvWg3WTQbxWEgdmXgczPb3E15hi12R+O70hQw6u40LSIoPMGRMWfauLhidqDDHSw80JJ3+LLczYbzJfU//EkzBn/V2HdyR+GOfvFNEqTOidvgflDu26RvPjiasn5lOixU7jsZ/PYpaLgugrqzPj9uQFQBP6iKXYmsy/T54Uh8HuPL4oyrcnJ/f5YD21lv2JTr5eXJveyd4AjeR1bjj485GfRNdJp95xTm0W1Twh90iJm82r7z7PVAqPmPfpd9kboJm8/TwzMz0iRC9x0/nGk3zi8zGlf8u+AE3lw+eZX+wNS/r4k+wK0FS+qHGNYh9pYbiu+Xz9sca1rPxj/l841cEZ8EONK237xw3OnHQO/F7jeYr8Y4B6+LPgknvZQvqAIedz4LdkatsFMqU3shdAs/mytpn7vtFB/9q58A3Flzn2PB/gtElnw8+nLzz3koi+QkZ8Lvz0oXT68bnT+RPV8GfEH/SPy+tm42QCC/+cEz9f4OBzRD8imTgnfvpvF5dQcDKBAefz4uISCk4mUIJ5bnBCcVFDHiskE+fHT1/VtUSmF0T08ZN8cnA+/P6f1JNv+PxpE30jnxucE6//o7gwz9my/hMznM+UP05/Pns/uP4TPcRnyx//kV9H+Ey5IZRMnDG/faTpqU8G/tlpEc5ucNZ8+o7GD/JlnyfLO/qIyRznza+/0J/nXF0c/hd9wEDdufPqB6K7c53/rE6X9y+c2uAC+OYDUessM+PNP+gj0uHL4GsOxv3o3Eop5u0xh+Ff5TOCs+fTL0Txo33quaazvF0QffWbfD5wEbx+S0Tb6Dw8Xt4E/Gm+RKfExfHrX9/xNz+4vw0bnR+Hm0d1lsePP2Mm0mXyzXvlcfP5+PMfKLu8YD798eZdk03++O6HvyMGg1ND8heAxgKJQeOBxKDxQGLQeCAxaDyQGDQeSAwaDyQGjQcSg8YDiUHjgcSg8UBi0HggMWg8kBg0HkgMGg8kBo0HEoPGA4lB44HEoPFAYtB4IDFoPJAYNB5IDBrMb28UpP/9Q64DoFF8khVOFDgjF2gmatVCw5dyDQANIwvFCMSgqSShGIEYNJYkFCMQg+ZiQjECMWgwJhQjEIMmo0IxAjFoNCoUIxCDZvMWgRg0nU8IxKBu/qWbYufGv+XTgUvArnc4Hz7+JB8PXAJvqSVniDsf7ukH+XTgEvhE8bmd9Lm7/BOB+KL4i1by1Z8PLfpZPh24BH76SB356s+GZUyf5OOBS+AHmspXfz706K18OnAJnGMgnv8XAvFF8T2N5Ks/Hzb0i3w6cAm8+kAz+erPhvkCI4YXxRc0kK/+fLhB6cZFcY6BuDtAIL4o/qCtfPPnw4w+yKcDF8GXtJGv/nwY0Bfy6cAl8A0t5vLVnw0ciF/JxwOXwDkG4ikC8UXxT+qfXSDu0Mev5eOBS+AcazCnqMG8KFxrMKNrO15P73qVjFO3gulQNiuEAzFqMC8Jx0A8jyl+kG1lCS0qkW91kkZlC4H4oviJyCkQh0SPssncEVEo2yX0rmTjSaJTFG0s/6Tf5eOBS8C1BjOys44ZUYsWE7m0Q4via9l8iugUtfgt1GBeFM41mIEVMidjTkFadC8Xi8ynHKcdG4unkBjF8BeGayDmlPhGNlXbfzDvzu/2+xcO9lq8DnKMaSFbgtztJWwQiC+KV/9JWWttH0RBwEnwgBXT4m6or3Le4Zju9zbKVrSnpqitZ9LvR+72Aub/Rb/JxwOXgFMNpuhlWHXXsfjJFgf7GoUTon5p90UnmoUpqn0YE23kYhi2I7nbC9igBvOicKvBDNnGLbX19sMVO5yYxhbH0Z5gzHpavRmlTAKKA1qtqF/l1CgUw18YzsXwQ4pFVnY4y6InI6LFpiwad1SMPdwD3BlT/4EbdvNRpRbPEIgvix/JsStsQyvT9Xsb06in0gpDdKv+Ddb6NpuIG2yH64r4mcZXundiMqC+ifNVMKC/y6cDl4B7DWZA4Yq2syUnsaN5RH3Tk6ASiysOxoPdHuMtta4PhfmHAdGUH6a72Ob3/LR7e52PAzWYF4ZzDeaSxt0WLTp95bBcl7K+3/XviuiBk9N9PR/LFrf7dPCNTG/zhtOSG8cD6jAohr8s3ANxi25Zt2n36m6nUy0sjaC3bH23t2c4ZPgY88Fg0pMVmZ7hcMtaP768HKODQHxZvGM1nZgv4qX54d+FaFyi8Z3qwViW1cfNrzl3oHHSKbJKc46bBV+/CCLnsotSpvRGPh24BNzXwdyoDgmR+Fq15BRS/8MNPbNhMyRSLk53hu0e1Ig09bN+uaswTTkmkdJ4N105BtRgXhjOxfCThTJWJA5Nqy7mq3oqbI6lAznHrYmvs93D5EYpPFk/Rrvw018HWv7ng2L4y8I5EM+3FLNjAQ3437BjktgxDdXQcoc3dksyuUlnWoyD3eOkF3H2MVPxuIh+3pc5jAWJL4z3roGYw1tGNMwk7tGd2tiVOEpajGuKS63kcK6Dr0XgWIl0kBa9l08HLoEj1sHsBFE7DFc0anMktiSOVGFbicTLOO26m5arGarOizx72o1HgRrMC+PoBYnFsiGNVeDsa4k5HS6RuEXbpHXWiWl3NO9kEqMY/rI4fkHiVGJhr8QduwqzReOS7obSdOLFEmNB4gvjzdEpaCrxQNVMLvZLPLWHm/kXvqSYLZQDIceLJd7QO/l04BJ4xjqYRuJhLicuk3iTL4e/KZtRepJIjBrMC+MZCxJHNLpujYOnJJ4VQ+q0ZHL/SXJiFMNfFscH4s5NYH7zn0gnwjhr1RkmY9oWB6ZPIvEWgfii+PaYQHwVTYNYGxw83l7lGna3RYmv+rs9w5wAF8eSSyXeN3nakRl9JZ8OXARHrYPJuSbR4l6SVquL7ZF6BYmHY1LRuUDE+udjcWnDTqcpzwc1mJfFkQsSR6NNJ/29t3LilbrGlnjNupclBapuPpcXt4liXVafsqUXrlaPYvgL41kLEu9KPIs4sc4knqw4nE7Ljo45W9x3XRPomYwQiC+K189axG9XYk0q8QOnEvsmOCuLaVrlnOYiHfqIQHxJPG9B4rzEQSLxncxB0oVpe4vs9cpWahrTsnwmSMI8dCxxLoIazMvCvRg+h0j8wBJfq+WnOJgHwWM0ThbVHA5K2nQZq7HutXhqAaCDz7EfFMNfGM9cGf7RhGDVO3bFsqkLeu5+Onw9P7wglonAJ5L4EYH4ovj1eYG4exto99sU84/3VE9N7tDd6OZgelATyz/pV/l44BI4ugazAaAG87I4vgbTf1AMf2GcYyC+RSC+KF6dYSCe/xe9lo8HLoFn1GB6D2owL4tnFMN7D4rhL4xzDMTXCMSXxRkG4u6A/pBPBy6BI2swGwFqMC+MZ9Vgeg6K4S+LqgLx4/W+seZ2yaLxp+UBgfiy+OX5gXhm2a8mF5Uv/NchGj+5UPZVOhVkGD501axTm6dPq5dnSt/LpwOXwCeKnxsn2/YsuYiss4vm4ZuetPjRlKtpxvmT5DE7M0gPgxrMC+OZNZgKFs/UAysGB0aub8TiscydSxjoOk6NOrGSYUxBl+7U1iK57u5IiVEMf1k8sxje0I7Tk81xzmBNcC4iFqu5Sjky76W6Xm8lq8wn53o8liUC8WXx8/MDMdMZU2wWuGxRX/LXBH11Qk9LvLmR2wwja/adLbFsDZ+b6LToL/l04BL46T9edioBdQ5cNWN5aRZSsYjNHbqTaz1DrleSFK/SU+mWSnxTduIPB5Z/ogbzonhxDSZbrMasb5NTMQqDtC02pL1deHmJM1jih3DOma3OJibhkRV2KIa/LCoohh+qU4BexYWuiWxJqvn+Xou8xFnDjiXeis+a446zOYrhL4t/V1QMf1csIQrVmTsM+1t8B9KJgLbidLBIb3FjQ/+STwcugVcfSs87cDS3+dWHmdDMglaoVQbLOShx2jFh38sB1GBeGBXVYM5oZ/HKF0nMD9USD3Wb80iJUQx/WbyoGP5B+sk63YeYFsW+5l2Jw408gNmYBMPW89HKiTkT0RJzY693tMRjBOKL4u8vCcTJwMV99/qOrjtE4mBfh9T2jsQ3cn+Nqdaw9VTrDiZwm1BLzA+ZHyvxjH6UTwcugi/39hs4YBpeptX1oPogUsolnpkljBXJSXNtPa9CWY9tqct9tMRtfZAdJzFqMC+LKmowV8mAX5r5Gud2JbYSjECakwf0FInVQ46SGMXwF0YVxfCpYcdJXMiJO5IrJzw8W+IAgfii+K2KYvhqJDanr8kYJxKrcedjJO7QdwjEl8Rb1fR/KRVJnIxZk67BHIvEG51eHyMxajAvixfVYKZYErdMq23wDIlT0kNBS/yobz9CYhTDXxgvKIa3sCROMRKnFWiOEusaDktivkmbfIzEKwTii+L3SgKxLfG1aZSN9DXZAJyjxFc0jia2xC1VyaPeYrDvnB87LP8kBOJL4oeXnubQYEks+plrjpZ4RjRSEutDYdJVpWyqm3g943u7FimhBvOyqGpBYneJ14cHOzYUz9V9Ndrx+Zg269i6y1NgQeILo6oFid0lzp2Xw4wU2hLf618G0zsRqONrfs+BeDkgunftCIwQiC+KylaGTzycPJ0TR21zhzBcRzvpBOe/RmI5FLrDO4of+HnVeUfdZtrN/wuB+KL4IqtZfxnGw6GahJSiup93JS7BknjNj1tn9w1XlMxA5a3tvifIgRrMy6K6BYm1h6vH7oNOAwyq606f4dngJPGUYlpcyX2H6uTn/WTVn4gtdsgoUAx/YVS3ILHysFXSW3ekxB1Ok1fUD+W+HJcfs6ds912mn7QRiC+KCleGZw85UqbCphwp8ZQW8/mIo7HcN8pl7E458QCB+KL45ti1zfazorEZoitgmnea/RLfJ3d6IDV8OFfrsa3Wu2Mw87D9ZOEzajAvjOoWJOZEtPQE5GEsXcFMqcTDMAxnC3kfk7EkJB1TzpZfwkJf9eQbRjH8ZVHhyvAj9iu1VWjRts9XpwsLUVlvnloIlig2d7pepHUcD7d3+pYi+4J5QohAfFlUuDJ8uyRGLrV1aXXRXPed7aBC+CC9YWblEBMO0hsZ20soCfZ5pgjEF8UnPcBbEe2SfHgcjGQ0QzEsP0f+dTt8KroeAWowL4xqajD9AsXwl0U1xfB+cYVAfFmcYyBuIRBfFD/9x5Mt/caBBYkvjKpqMH0CxfCXRWU1mB4xQTH8ZXGOgXiDQHxRvPpvMr3tjJj/F0p/LorqajD9AcXwl0WFNZj+gGL4y+IcA/EMgfiy+LK0jKHZoAbzsqiwBtMbUAx/YVRYg+kNdwjEF8U5BuIOAvFl8VZXq58bKP25JD7Jt35eoAYT1A/JXwAaCyQGjQcSg8YDiUHjgcSg8UBi0HggMWg8kBg0HkgMGg8kBo0HEoPGA4lB44HEoPFAYtB4IDFoPJAYNB5IDBoPJAaNBxKDxgOJQeOBxKDxQGLQeCAxaDyQGDQeSAwaDyQGjQcSg8YDiUHjgcSgwfz2RkH63z/kOgAahb22LE54BJpJtso3TngEGkoWihGIQVNJQjECMWgsSShGIAbNxYRiBGLQYEwoRiAGTUaFYgRi0GhUKEYgBs3mLQIxOAKdfwIXZI8B75AvCDyN7DHgHURyFm9wGEjsL5DYEUjsL5DYEUjsL5DYEUjsL5DYEUjsL5DYEUjsL5DYEUjsL5DYEUjsL5DYEUjsL5DYEUjsL5DYEUjsL5DYEUjsL0bi4Tqc66+qSsIr2XiazoNs+Ask9hcjcUi0rdriThy3ZbOUqLWUrW53SnTwvkeyXsvGk1wNZeNJILG/GIkfiK71V9UdS92hEJlrn0M7Jnrcf2TMF9SfyXZ3RePnH0Pzwa1sJQxo5fB083VvS4FceBJI7C+SThBJSArEXmFjri26rXgyhj0siO6yaFtgRnSfmhbRSLaeQY9fJpe5tPndJW+8lHk4i6Zb8zFcfwEgsb+kEutvSklsfavj9MJzJO4OB0RT2d5hZCcwEa1k6xksV0SxFYw5xo9D2dY8RCmtIAju5AMQLfjSvdzpKSCxvzwhcSLDAwsXJMmFVk5ds0OnHdqst7F1xbUd9PgV02TihRJzDszH2CiN+bcU59uJS3E2ZRzcRzdHtDsVkNhfHCVW5CTm6GeRCLSWy+XYUfmRBrKleKHE3XmLw6q05h5iujFbKVMdc6cqFN/y+xg7t+YsILG/7Eqsv2tD31HivrmeIzHFbEs5C1vUTi4Qv1jibve6L2205YIe9UYpM9XalA81n5i/bkBifyG6Vr/0RPxv1FGm5tgr8dUkjdk9ujMb6mAYy9YuK7urY5oLxBVI3L0aGScDutvfM3HDYThJNYaDMX9eZyCxv4isBrbSNRKrlplIPMpC3zALyprZJss8bYk5EF/rToRS5E7PokWLvcmCSjqCJPyqvpP+EWkxJPYX/lrZWv52o8cg4KzSNSdWUko31iLrz3owBi4TUzjpSFv/0yzazgcqxlcicSjHm8AfZCSbUWR9EsXVndVxfc15Rb+3P2bvAIn9ZTcnzklsD31ZmYbSsSdOT6ykgxt27O/8biEJ76O+bLjLGnasGj9mGcov+0Y95UKEmoT2gfMkkXrsHvIDGbcxxWmLr6d65Y5QGBL7zBMS28GsIHEkWURIcWpDJ4pY2pCj3Ej/qLNi+nrFQ5ikoDP1FJaqY+IHHB6e2Eu7JWFXMbZzoajVkvswHb6N6Jbzfs2IaHtcDxsk9piixPxDb2ObVUgnZtKe2+wO3Q5ZEj38EBVyZE2nTws7255R/EiDNBS/gNwRmEMHe5tjMgkNJPaXosQHaicKEieNuEeyIl5Cu6+HH6KS3gp2mK7tbDugFj/j9Jmh2GawV+Ilx/ptEHAQnoUqDB9fNQeJ/cWSeKgS2Xyv08Ru6Rck7vbNyPM21+ObsGRV2mUSK4fv7SZjh+iKn7FTQSjON0RzdJJP0uHmnQ7D67SzzQlI7C+ZxO1+caCrQFHiQI+MPVgpsWJ+92jG79o9dc+dVGPNicPE1m3KDT71jI8vD8UHJBbm3KIb6QN12af+3s64EiCxv6QSc+ScdXWNQ4E0XhUl7unSs8esE03D2Wc/bfc/lpU6tti0TDcOxB39jMs43lvy5ki+X3uX+WZB26TDZR3TOO06eRpI7C9G4geV/7Ym/E3tkiYEAamckgmMxByDJ915nFQiJ9xyvpCYcl8wPCWTWPe86cOi9ZJ6TI06HvYzYYUX1q/NmmjgnsFAYn/RybAqhAhUlxNJnUMQ00C27iyJU7TEbOKme1PIJpjlI99jpHuwgn11DKnE1xTzj7qWmBtf+9ple4nUoHmKGUNPWatxdGHSnhLFPR16J+bm2wG/TX2jC5DYX4hCU8sj35VQll0WIzHnE4v5XVmsfeDGkx7Z2FJx0oWQPP98ofs2TIISHZelKvRb348cFEs+KBXbQgcic6BYKA8k9hf9TcYtN4nzObFKZ/kAKG3jX29VfjvJ16pZJM/for66o3nG+Zi2R2SpCv6pMAeWQv1UDGSbudfj6BqOwglxwEnFvbqdg/E97TvKdoDE/sLhie6urH7isa4ud5JYu5GrRivAv+97Qqs8/40ES3nGTnyoBO1JBnRHcelA3Pqux87K4bZK3j4fNlvngTtI7C8cSTkWZRL3TR6QSGx3FBckZts4FOeadSztQbJOY/P8YSzJSHJYzDhLfbbF/OCraVYWuot0fhiJr3WH3tA58kNifzH2phLPydT8pAN34q3Ckvh+9qiGJpZ9ys2iOFLiYZ8WRqw0tt8emlv6BFNupnEs39vbvFb9L4yWmH8DXGZEZ0BifylIzBv693WseycWZRIP27qbos/GqymXsVXoNsnnx2xk7op5dklJHPIh0DNz8FY00n/bHc5S05n8x+XH/LPAD2xRvKeb7Ypfrq+eUks85Pe+c7gcekFI7C8FidcU679JOmHDEg/bK4nRAQc8Fq7Vz1mcg3/e2fqbUjP4+VVNzm2xkrKtDwyTokRHFZot+bjj0DoZUL/U4gm/8Z5Ojkw6oSrkC1M7Dr4gJPaXgsQraWntSjwJkxSjPzY//hxoH9W4V7k00krrpRM4c4zVCCEnxO0gWEWqX0H1Kuiy/OU4loSAddw9kvbB8popHcMx9Us6TOb88yG/KknD7poPwFznycEXhMT+kpd4rvpTVadTQWKlgCYebdQgsdKhzeGYQ981W11m8RXLdNWdq4GP1W6WqyJxP+uJSHNiJl2XbcIv6lpOMR9RLO94uCi4qZjwr0ZPthOJu1eDfJnewReExP6Sl3hD/R7RtLMTidkBosGt8UtLrH6NtZycFsS71bntWGbGP2zZ8p2ROPX86SSmvMQZbGZOsv2o0ZVUvw6n8tN81556E+krpBKr8G0tQ3T4BSGxv+QkvlJtezX7bLUoSLymwSb1giWeTNlhuUIlt+N8zqAC8EAcnUf8hNnSJobCQVIusc5uHCye8AFlL16oykBlhNlwy+8gG5rLJNYWD+y3tv8FIbG/GHtD/YfbPmro4kqPbw3MvJ9WEKiOsbkd2SK658iWLUEy43Y/TTMX5htOn6dZhFMzNAuZsaPE6hfgqYxiecORd5vPaG7Y2kWyvgS3SK3ZdSr1zV6MLZap/sLeF4TE/kK0Dnr3C9Vjxr+5Moe9c69y44Qkl0yJKFjkltHpsLSmSpdZ9tjpQmRWoTDXLTvO177tlVh1VuwZudbouh4+YopdIOq4YY9X2uN1P2mwLaPrDT/AGmqeFALv3heExP5CNNfLQz6q6GX1lq2jaSCtuZ1mW48eJ5EdmrvLO+PCw+Ze9WHsTiRWqzzYc4LyU1B3ipIzhguTeZejhgz5iCkUg2pmutjH+DhM3yy/DX57h7ru9r0gJPYXziMeKbhnDTiTLJOhhFU2+b7AtXJk0SuxYMJ5qjUiXEg9V2XF84bD6/6pJX12Wo1Ce7yb36rFAqa5TGaHPS8Iif3F5MSGg7pYBPsLFCK62+fUrQwxa4Igd7dWsCedeJLWvpdT7B6UyzD3C3IEkNhfbIld6WRTlnY4cCDsdMM1CkjsL8+R+CKBxP4CiR2BxP4CiR2BxP4CiR2BxP4CiR2BxP4CiR2BxP4CiR2BxP4CiR2BxP4CiR2BxP7y+SR+uLvPFz2unjv0XAuQ2F8+n8TDQpHn5thJ9PUCif3lM6YTxRWwHilZOaUT3eoZ/MKttTDgZwMS+8vpJR5mK1Ve50rIdta4uk0s3jk52KG6+JqAxP5yeontZYFylby7C7WxvNridZCdjI4pPO7zAIn95fQSX1Gy6rGsLpRQstog+1qySsWelTfrBRL7Sw3pRPoSBWtLJO4WzwKqKbtj7UBif6lXYtkw5N1s3e9tvkFicBBvJA7McttlQGJwkJolnll9Z+YMG7fS8zDaN2sfEoMnqFlic36QHOLuyqzRk1ulRWbsQWJwkJolvjWrYGqIWmohTFnJZGXm1/O9LYzgkBgcpGaJbfJuisTztENOrfFt1o2AxOAgvkls32kly6JBYnCQWiQ2DTmzamGGg8Sm1xgSg4PUInEKX7yaJmtgQWJQDbVInLbk+OImrYSAxKAaapFYtvTGfJGcvxESg2qoXWIVis2K1/sklrgdRQNIDFyoX+L5mNSJHPdLbAGJgQP1S6zOb6fOrL9XYunLCMMRJAYufAaJuwOKlZX7JNZ/FMiJgROfQ+IZPaqCNUgMquFzSFxa1wOJwXP5LBIbHCQu68b4TEBif/FQYmnWqYZdchUkBgeoRWKR0kXipXSuGcxpQCExOEgtEqfkVvgplzgwZzLVjEytMSQGB6lFYnGyIGOpxGVAYnCQWiSWrfy6E3NIDKrh9BI/JA5yumuv5MPX29ObITF4LqeXmNtzRQdbPU4u+uqk6Bn7JeZQDonBAU4vcQkz08zTFRQJMtu5wA3bPqBYLn1OILG/fBaJ9cnutzLNWShfd2Ktbd+baNQIJPaXzyPxerNzovCARrKVY0Hb+5I1BusHEvvL55G4hHbpWoJdD7JhAyT2F28k9h1I7C+Q2BFI7C+Q2BFI7C+Q2BFI7C+Q2BFI7C+Q2BFI7C+Q2BFI7C+Q2BFI7C+Q2BFI7C+Q2BFI7C+6wAa4IHsMeId8QeBpZI8B4ASEAY0HEoPGA4lB44HEoPFAYtB4IDFoPJAYNB5IDBoPJAaNBxKDxgOJQeOBxKDxQGLQeCAxaDyQGDQeSAwaDyQGjQcSg8YDiUHjgcSg8UBi0HggMWg8kBg0HkgMGg8kBo0HEoPGA4lB44HEoPFAYtBgvn2nIP3v93IdAI3ip4+ykCrzSa4DoFn8IAYTvZVrAGgYWShGIAZNJQnFCMSgsSShGIEYNBcTihGIQYMxoRiBGDQZFYoRiEGjUaEYgRg0mx8QiEHT+ekjAjFoNF9//+P/8JNsA9BAfv9Ld068/6dcBqBh/PYvFnh0veJ/f/lDrgOgObz69keieHXV7XaXvQXRV198LbcA0Ah++vd3RIvbCSusmLe3RB//+lVuBcB7Pr3nDGLQFoMN6xFf9/a13AMAr/njF9b1/kHkzRg+xkQ/fvtK7gaAp3z9xVdE/dZQxM0zueXk+MMbdLkBj/n1r/8kGt8kqXAJ13dE//Eewx/AU16/5TwimImu+3i453u9+0YeA4A/vPr2S9Wl1hFVDzHs9Ym++ju63IBX/PTmA9EiWoqmTzG/GRN99wO63IA3/P7+P4i27bko6sRMdbn9jC434AXfvGMdp6HI6c7VKib68lt5FgA+F6/+/hWnwo/lXWpPsYxUl9v36HIDn5Fff/iOaLw50KX2FO0B0cf3v8vzAVAz//yZ84i7a9HxuYRTfpZ//SbPCUCNfKtGl1e7o8vHM2zpLjeMR4Na+fr7D0T9nmuX2lNMNqrL7d9IjkFt6Akb25ujutSe4jpQXW6YAgLq4Nv/zf+WdRutRb7u5C7ddGTVmpU1BTuYAgJq4dW3/zui/64nbBjmAcXHWTxkVyPZzmOmgHyP8WhwQvSEDfrf5+JoZ0yxFP20o1loEZWrekN0K5s7YAoIqJLfX6dIpmombPwfKBDjhOWAyMziUGltDn1tkYC25dl0m+IgCP6P/yd+4P/4f9bnSDAQvTFvAIDj+Mt4qPhKXU4mbLSLEncnicWtIGhFKVMa65sLTOJ9gbhtXq0EjE2DZ/GGPphA+CNLbE3Y2JVYWdzfbaq1aStbk0gSDEVEdC2bwo3Uby7DUHJtMwUk6XKDxOCZvKH3ZuNb+sWesFEicXcYZC29lOyOqil3iPyUUoOaAkJmCggRxvPAs0gl/r8oz7IJG3mJl6MonZhfILvjMggeJceIRkQ92RRGQXnvhpkC8oeSGBWb4FkYifWEjf+rPWEjLzEH2d3AbCgL2d35mFqy+TRmCsgXkBg8EyWxnrDxf6P/e9dKans0UH9uTPXlnDNcvbFLqcQ9Wuwfq34Ii90WegoIEUZAwLN4Q/+TmbDxP7OMyqQCUgVPtK8GqEziDtFGb7RW0W4aPSDanWaqp4Bg1RXwHP4XZaqasKFkXAQpW+qrP4NUYh2SI3XvFO11mcQDGpiNKdFuJhwkt+Yh+u+YAgKORk/Y+F/NhI2CjIWLIvFG9DWUPU5xmwbwFd2ZDZsVrWQrB9H/Q08BwaorwB09YaNP/0/jkJPE9rV7JR7GaatutWu4urInWzm0+ZgCAo5AJmxENNINOW7JVSLxhDgTuUtabiu6ly2LVXlhkLQdzRQQrLoCniSdsGFluUrG9UBy2OdKzFdTX9+gKM0cVjTWaXeBdDQEU0DA09gTNiKS1txWyTgfJ42u50o8YQGzvoc9Eu8hLbaQKSCocgN7yE/YiBLNjIyzpHPsmRKrWjdrmGOPxCuTwRS4ltagxucpIK9f7297/v4ayyieHHOGjazfqyBxd0ALPb68T+KxjCJHnIfsSvygBi3YxZ1qTbtAfk9OXMTfKSDmA+3jndwLnAbrDBsJRYnXEkn3SWyzI/FtTP24Kok5rKspIB/8mwLCn0ZK/wzcvvgom/wjB4lPSeEMG4aixN0pxUryfRLrwWhNUeJJm8Pw4GqsJO7I+F6WToT6zhpnidMpIJ53ub1HFWlNlJ1hg9mRuEM0tS4KJWG3eBVnw/Q472qJE/bkxM4SM/osIF6vusI79u+yCU7JvjNs7Ercve+rXoLjJZ4M+qqjt2qJu76fBYQdxryq03PoDBu7Ei9119vxEncnOteuXmJ+ZjUFxNNVV9hhqcgGp+PwGTZ2JTY8Q2LDKSRmrCkgPvFKjXtyIMbIzCl56gwbx0psN+x05K1S4oNnUdBTQDzrcvv9R253ssSvfnyLeo8T4XCGjeNqJ/JVbNrWKiVePe75vTDIFBB/utz++I4+fvGeJf6e98Z7VN+dAKczbBRqJ1L2ROLgXoY61KQ5fXBUKfGI+geDsZwFxJNVV179xe3Nf3JS/OZvP6mun48/YFGjinE8w0ZEA+Pk1EXiEp4jcWkpJisaU/zU+/VnCsgf3Fr+mbVVEvPuVmnbd2+QG1eI8xk2OJ0wG9n6EZqTSlxSn6lo5eou9iJnAfm8vrzmRO2jHuIwEvM1qhfzwxd6G7yYr484w0aaCrfzK/n0ErkNR0m8IlMYFwSLpEaOiROfH8uTBlVIfGB6qY05C8hnnALyjapA+cW05RKJ+Vre7fQVprtWwHFn2Fgl7i5DGQpZqjWqOCg+mouG/RJvyiQuJZF4xtv2QljMNFDjfbQ4nBHbfMYpIN+8V+stfpXU7b+nv2Trb3/7glsh9CUWgXkhFZxhQ02tYHK5SPls500U9fqF5IAlvgpLZLxKFq9SwbuUwb71WcrRU0A+w4l3VaJmpw3v7cGOV29YcKQUL0J1qb34DBsP6lsa5LqW5wWnBR1y4/wt5ctV5ZmsVfDNuI+idniUwRqZAlJzn8DXX9LHN9ZrvqO3sqX56YcPaN09n8rOsHF7Y9WcaYblaoactzzahZ1a9xvZrAEzBaTmE+9+/UMuGf/h3Q+yJcDhZ/P7++rPsJEyiaLSdHU35vM9HfpEKuQzTQH5pyzqXAADHi+gOGHjktBTQOpedeVHlUntglnaz+XV33cmbFwWn2EKyDv6SiZzWGBNxOdSOmHj0jBTQGrscnuX9g5bEGGC9nP4Z/mEjQuk3ikgkLgy9k7YuEjMFJB6Vl2BxNVwaMLGhVLfFBBIXAW/qjVQ9k7YuFzMFJCTd7lB4pfz1ISNS6aWKSCQ+IXIGiju1TJuXO2chiDPVWO6oWuYAgKJX4TThI3nEBUq14q0+FVlsxLW02Rwrz0OzApwlaGngJzyxLuQ+AV8cpuw8RzuaXwwwx7sP/uMMA+yIeer/NjL1W77s52un8lb1Uf5004B2TPYAYmfxnnCxnMYH55KP9x31vwMTkbTiPrI79Rm9yS5rK5shXvOD/1C9BSQE626ogsyd4HET3DMhI1n0Ckvt0xpPz0BrrPlQ0yief4cNWVVcCEt0q1YtirmdFNAytKJV0RY1/Ugx03YcGVi5usrWhTLloWVeQ8cJsBNOBZvTR6xyU2vG6f5QpiWeYbphKhsi99PxZ9QTQE5waor70rW/fkVtRMHqWDCRin8Q36QLH4+ELl0h2yI+jrTbRckTqK8PPF+Kk+WTjIF5KsSiX9/9w4zk/ZSyYSNUsJ0TicHrDvZzOhnEk8pliuZdXdJA9kO7nJTl65jc8aE/RInZ+wYpM9ob1UvcTIFxKNVVy6OyiZsHKZVforEBM6YLdht2dLk0vSHgX6r+yTOsNOJJDs+FZ9lCggQTjphw2IZH54bd6dXYevRgv/V0zwW1NNZc8gJhNwnx9MSr6kvWyfqnchjpoAgaa2d+iZstGhx6EC5NRmxtcLKOJF+j4FPS5x1sc2I6qgB+SxTQC6cOidszOODncAdOUmotVJKJRJLjsRb9dTiyRQQzISriXonbEQUs1DjYtNOhqE7fYnT1Ugswi7DpFgj2zo5tU8BuWBqnrDBkVaNqHHjJ4c6eYe6ldv2pncvXbltV+JQFqzqi637Jb6KR/XE3T34fxaQs6DuCRvzAY1VKHwwTTVNjyhIAuXNQtxNl+QukVhrz4ig+yXm/DruJU8dTGUlK2ZlFos9PXoKCE68e0I+w4QNFrZYmsxp6iBLZSaSvB6QeHij3XeQuBvecaJkXnAo5gu1Tdj2+SwgzedzTNhYU34JTEbF4ZL30MqKNffkxKnE+4adNTNWaKQOjAknKlp+5rqu5p1BTwHx9MS7jeazTNhY829rPvuer9ixsqaWtch7ucQspYiYnvlcU+yFnqykqWiJy1G51mPXy7OANB9T717zvDnlcEExbvlMLYeXYqJab1jGjO/3SJyJWCzFTGo015KZrM3D8xLLVl2onor/l7y/BiLWeIeeeVRrQtyOKV4UJB7nl2stJK6K8X6JZeuKE4TkaFS1cvKRlos4smP855NYp8UenjnaGW8lZn5TKUVdXRNLDrrxOihIfJe/PIluddIahn3a6L+3mycl3oOK+wurGu9zSXz1+CenEo0evfNZYmnc1dJJ3O5z3F93tcT8kiZVCII+bc3GXa51pqqA0v6DZ0qsDxsapU+TkzippTg5uqu46Y06vyWWyrUahutuY33+DJG4jJzEUTpQvE/i3IU9rMcc/ROLLYmzqrbTogftzqCizXeJGTXgcfrCiaupGl/QEnOWYK6Ty8wyzM5RoOAvP+08dpG4ZZ7xunC2pHkvTrv0LIlvC2f/OA1LPZ3/HAY6GiCxzOaopYStmBMXLwucK/RTi/dJrKLplemKmBFNOXLzHYonrsumQovEarxu927VowvZPsOJPk5BIyTm5FgVAdVQTOwocYsWy3Fi8QGJJ2NdsDkfU6zvwwloycSqa912FYlVrS+N01zlRKjxjfMp/mmIxKocU41Bn3pah5vEw5huusPE4nKJZyzxPKC+ussm6X6ebCne6W1ZxwN1cIrENxQHm9MerHpyx+c8+V3VNEZiRp/47yQT7FLcJJ7qCUydPt0p28olVqd0fDQnVLqK097mYZ/6aepr6MQm8Fo58UkZPv7j85+GtFqaJLFMUTrBVOcUJ4k7skzPQ6yHpMel05NYYr6sxs3nd9aCQiy6jrsprPVY21uQOKk0qhg94dmHE0JXSbMklvHoyhedSHGRmLNhKS+OdGGFXXtsrlfcUiznAGvlzt/IZturVnBSYhwuShyeYHGYuVp6wpdT81dI0yRm1LT9Uy3/4yDxZECxVPvOB6qWbZwMiLAh5nqFGkTQNULtwqJX3HLLijEfFjSQT1KQmB9WcXeMXgToLKfrN1BiKXE7yUJsT0vMjbVsNbWO6kGzc+I0B+C2nxkeWVOh03fZz84+fhNn3c1xXtq7iifvX63U6PJ5Fqo1UmI1Hq263KpfEjPInwV0UiwI6l7d7awmmN5nZgfTdayng8y42VbIfTjGmnRk/mjX228pyNLg4ara85HOVM9d9UtYeUJDJZZpH5UvThxkhrbvo8dtoV933mMXigMRqW5sp5X83vBbm3M+LCmvxdSUdy75eMgcVtX3jK7a4J99br/K9S9HL1F8zpM3Gisxo8aj/6x2mfhtNmFjqaXSnWgpapQrV0PB8P0KoTlj3dcVGQWWJnJzRm05rMs3Mvqrqn5lhq1/nGxZV09ossRqoW3+vquc/3EfZKsHT2mwKvbm9XYcPsxydSBzXyaLvyaoymNDZT8wes7GuU9obrbEsihFjTPxKo37J6d9VqPLe2m6xJ9jCkhDaPyEDWeaLzGjF2rD6URz6AkbF7Lc2llI/Le//V7bFJBmcBYTNpw5E4nrmwLSAM5lwoYzZyMxo8ej61k702NkwsYlLQZ/ThLXOQXEV85pwoYz5yXx38yplWqYAuInZsLGxZ1969wk5uS4likgHnJ2EzacOT+JGX260dNOAfEOPWHjvEeX93KWEqvx6BNPAdlLpE9GU8awHU1HUfsk/SdnOWHDmTOVuJopIJ1oLbUMu1xH5WOEi9IJzaa4UrOossRSoydsnPJE+r5zthLLePSLpoCsxbtyyvvyxjsrHGv4qRb3URhuuOn19El1j+F8J2w4c8YSMy+cAvJApM8+UELLmsWRI8iKOW3alJzXIKr0VKHnPGHDmfOWWJYkfO4UkNyigKtcOrt3vUCrrN7mIYvbq/JY/RzMhI2LX+P93CVW49HPngKSM3VMfes5jpXY4qGiNS/PfsKGM+cvMfPcKSA5U7f5qfbPl3iyLxM5CjNhA+c9UlyExDIeffQUkJypQW42sn3TrZ6wL/TTc+drSgrrOhTL1vO5iAkbzlyIxM+bAqJN1Sv85QnyEnNTbS8lEt8cPou/AxcyYcOZi5E4WZLwmCkgInFfx9R+sn78oijxhsbSZ8H0KZAtZveseMw0PfXMs5AJG0iFMy5IYubIKSC2qSyz3TNm32Sd51mtgWIF37LetGtzztJnckkTNpy5LIllSULXKSDPkHiZW32qROKHuP/8imczYeNSR5f3cmkSc3LsPgXEmLo03RqpxB3Vt7BP4jC3gMquxJ1+/Nxy54ubsOHM5UnMuE4BMaa2dQvNQsXxfRLf5NYF3JH4+Q6bCRsXPbq8l4uUWMajn5wCkkis23NJw257UOJebpmrosTL8TMdvsgJG85cqMRuU0BsUx1z4juWLatiK0oclPVWPI0+g/jlTdhw5mIlliUJD04BOV7iDucp1mk5ChK3n3NWpMudsOHMBUvM/HF4CogydSJdvtGYVrIVRXslblE8i2mRpMUFiVeFwOzAJU/YcOayJZYlCfdNAVGm8v87jPdJPO/TPV9MT8tRkHhLR/YQmwkbGF1+gkuXWI1H750CokxdJvE3jcT63EnlEm+0tdwIk5N6FCQO9hTSl3PxEzacgcQHpoDYpmY5caScLZW4E+ut+TbpothJJ9zbdWbCxiUsB/hyILFGj0fvTAEpl3il5m6USTwZyylprmLpoihI/BC5jnhjwsYxQGKhbApIqcTLvirgKZM4SKfP3XBkV74WJHZFT9i4mOUAXw4kTjFLEtpTQHYk7pA6z5caWN6V+IrN0+eaUfC26qJ4jsSYsHE0kNjm2/wUkN1IrBTW+W5R4ok6b0x2niR1BjBOKI6XWE/Y+AoTNo4CEufJTQHJSXynhpujVnSjG4BFiVvKYatpeLNQ+h4rMSZsPAtIXESPR5spIDmJ03MuaooSd28pyPXS6azkuIYdJmw8E0i8SzoFJCdxnJsBuiNx96FkICMv8XxB8d7RDjNhA6PLzwESl6KXJLz/f9sS59mVuIy8xMuY4j2VGpiw8RIg8R70FJCDKwCJfwcknhfSiVnZ5GdGT9i42OUAXw4k3stPb/4/SuO9iIEHJO4UzpxfCiZsvBhIfID/r3L1v4/+f7IQpk3b8rNNW9lK0ecGXQ+InpoFhQkbFQCJD/Ca6I89U0BCorQ7OVJlbXlulf7MvmRZMBM2MLr8QiDxAb4h+iTj0cUpIMMoW5+4t9v+43afYnug4h4TNioDEh/gp9ev1e/8U1NAZqpKvkBAg1F0aD6dmbCB0eUqgMROqCUJqzwLCCZsVAkkduSfh6aAHImesIHR5cqAxM6YJQlfdhYQBhM2KgcSH8Grv7/0LCBmwsYHTNioFEh8HOVTQFzBhI2TAImPRY9HP+ssIJiwcSIg8fGYJQmPPAuITNhAKnwCIPGzUEsSHnMWEEzYOCWQ+Jm8PuIsIGbCBpYDPBWQ+NlYU0AOggkbpwYSvwAzHn3wLCCYsFEDkPhlmCkg+8ajZcIGUuHTAolfil6SsPQsIJiwUROQ+OX89KbkLCBmwgZGl+sAEleBWZLQOgsIJmzUCSSuCD0eLVNA9IQNjC7XBiSujGQKCCZs1A0krhC9JCGD5QDrBRJXyx+/0P+ILrWagcRV8zt2ad1gj1cOdmndYI9XDnZp3WCPVw52ad1gj1cOdmndYI9XDnZp3WCPVw52ad1gj1cOdmndYI9XDnZp3WCPVw52ad1gj1cOdmndYI9XDnZp3WCPVw52ad1gj1cOdmndYI9XDnZp3WCPVw52ad1gj1cOdmndYI9XDnZp3WCPVw52ad1gj1cOdmndYI9XDnZp3WCPVw52ad1gj1fOwV36jj68K/CRvpUbwfOAxJXzhMQlYOHMlwGJK+fgLv2Z3shWChFOqPQyIHHlHNyl78skxvqvLwMSVw4krhtIXDlPSPzuTQFI/FIgceU8IXEJkPhlQOLKeULi968LQOKXAokr5wmJkRNXDiSuHEhcN5C4co6XGGcbfRmQuHIO7tJ/0Vcy2pyCEbuXAokr5+AuLR12xnmWXgYkrpyDu/RTSerwGqepeRmQuHKwS+sGe7xyynfpr2++lX7hcr59gz6K5wKJK6d8l76W/Hc/aN49F0hcOeW79NO7d/+WYgnNe/pOtgzv3uEcpM8FEleO2y59TV/JFngpkLhyIHHdQOLKObhLf//xC9OAg8TVAYkr5+AufUP0i96AxNUBiSvn4C79kb40py9/TR9l2PndO3qnrwLPBBJXzqFd+jvR381WrssNEr8ISFw5h3bpD0T/SiJxlk68Ru/ai4DElXNgl/70kcOusRg5cXVA4so5sEt/oI9//2gshsTVAYkrZ/8u5UD877/99pHe/QqJqwQSV87+XfqWPnAQZovp7SdIXB2QuHL27tJ/k1k68Ne3nBl/RR+kfk3z7Zs37/WdwPFA4srZs0tfvcm60l7/onvW8kDi5wKJK+R3HVRJ/1vsNfvpR46+X8sFvvjtW9VTYYNSzOcCiSvkG9FR8YVcl/LNd9/tTk36pIXHqpgvAxJXyZdiMOkWXIHfEWpPBCSukiwU7wRicDogcaUkobgkEIOTAYkrJQnFCMR1AomrxYRiBOJagcTVYkIxAnGtQOKKUaEYgbheIHHFqFCMQFwvkLhqvkQgrhtIXDXfIBDXTaMl1o0o4ILssfMEEl8GssfOk4ZL3AUuQGJ/gcSOQGJ/gcSOQGJ/gcSOQGJ/gcSOQGJ/gcSOQGJ/gcSOQGJ/gcSOQGJ/gcSOQGJ/gcSOQGJ/gcSOQGJ/gcSOQGJ/gcSOQGJ/gcSOQGJ/gcSOQGJ/gcSOQGJ/gcSOQGJ/gcSOQGJ/gcSOQGJ/gcSOQGJ/gcSOQGJ/gcSOQGJ/gcSOQGJ/gcSOQGJ/gcSOQGJ/gcSOQGJ/gcSOQGJ/gcSOQGJ/gcSOQGJ/gcSOQGJ/gcSOQGJ/gcSOQGJ/gcSOQGJ/gcSOQGJ/OanEQ/l7DkBif6lc4hVtZ7LZvR+3u9356kEuHk07Wi9lsysbs034eQ4NSOwvlUscUZyIN4mJbtjqRWriDpOoSCi3KKbUT41tE93ynx6RfY9DrBbBsw+fXSCxv5xA4q1siXfLBQVyxS5zOTNRxo3coljRSrY4BFN/zn+sp3+KFcXqERUBif3lBBKnygZmc0YU6cuajvxVXCk3Vir+BjTWcbhP13KbYkU92ep2QxqrP20a6YsJon6KutPaZBzWO6kASOwvJ5S4Q2SMXRGt9YZiLLZp1EWdHSSPkovCyti/2YRhuKEt/xv2aKT+rCM5GOSJUpTEgXnhqOD7y4DE/nJCiac0NRvzsaXTMyTOPSSBm4yKkHU1aXJbPcWDyoLvzctFVjLyciCxv5xO4jQQs1q9LDnV10luwOmEi8T3ATOgWP3ZUl/9CYIstrNf6km1xJoVPao/kPgIILFhqX7nwxUN+F9OSgO9YTFLu94SiRkXiTXykNtU1QwilQPbEuuHQeIjgMSGtvzQK6LujWxZZE49Q2J+dvWnlT4yAxK/HEhsaNMd/8yP1e99HA1jZa3ucRjTVP1ZBaqf12BLPFDJgX4UEycSG+01rGIn39N8ZZuu7jvhfyHxS4DENiamzgNa9EXIIGmEZdgSFyiVOJDNhNjcqdvR9zafwUh8FU4g8TOAxDZG4hXRdZIaPCGxvtNOOqF6HULdwRxy8++exjpQGwbpo4tyK0JI/AwgsY3WMSK6T4V8lsSKx3SUxE6O1aOTUTuWeJvrt+AkBhI/B0hso3SccKycvFziBdHY1E4UJTZ3FiQZRk78EiCxjdFx/ZAJmZd4onrbNrRQf+YHJeZsIrF4RYFuIxr4kr6D8Egt9QcSvwRIbJPoqITUHQ9Bn3/ymTsTTLWaAgt6QGLOqxltsdnMyEm8NYPatsTaakh8BJDYRut4veGtYseDSKz60kwaq+os470FQMuYFvS4oAU38Va0UpFb2OQkntFC/80kHnFCzkDiI4DENhENegstbC6dWOpRvIQ0Jz5QislPxHnBQ0z9TpIgCPmceEDqiFESJ829dqTzlx4kdgcSWzyYXi+lb07iPKnEqih+xsHVDFaHt1lR/HxBM+VumwZpz68Q0kC2mBVtTWFGO20sGiZbk1VUBCT2lyolnlyv+srgwUYHXReJE7JMOqFFi7l2dzNRppb3E3f5LkkWfWt/lNV4wG/Erk1+KZDYXyqUeKoEpjjV8UUSd2LOEtIAXBzU6Juru+GC0rr5YRi2g0gmJD2oe1WZTUBij6lQ4hZ7M1rbvRPPl3h+x4E4k7itco2wPYrWeiM0WTDfrWfacEKUVX/e9yIrB68ASOwvFUq87D+yN7bEdhfb2Nb0SYk5S+AWXj4V7q5LguvQnkZ3U3zaCoHE/lJlTqyxJc5TJrGub2OSLrYo0rNBOn3dditI3H5q5mexbVclkNhfTipxLp3oJL/0TCqx+G2jr5/01ACGljhM23RbUyQh6PsxtybDUPTsOnx72nQFQGJ/qU9iGyPx7KGbjCZnkdiK1yKxyF0gvZ9c3kVurwhI7C+fTeLl7dhKFoo5sUFLPDStOhVnqU+BXAjT51xIZGbSCXgKM45XGZDYXz6XxLGa+ZENRhyQOGE+pmmH6NCiPtnIc/VAYn/5DBJP2rpHedGykmQHiTkQq/HnrZqKtAdI/Gwgsc1+iYeqemL5uFUG91fmtoSnJTadbssxbff3/0LiZwOJbWyJiygl1XDwaGc8+CmJr0ZSBTcc0zib+l8AEj8bSGwzsiQ2gx0pA6XhbNFLQuk4a4Yls52ZRfaOEomHHIZjGaVjiylZ7bITXUszz5DrYgvDWZQcAxUAif2lUomjPiuYNtfGtDdkGnZDtUFuVhLzc11FKnhv0wbdhIMyjVsqHbFXuijHPKQKILG/VCrxlfJmkATa/m6vRJ6HMNxZuXjOEVQ2lcSrbnfDz9mP7KG6SPVsqJWq1kGQDPmV0OOwbh5QBZDYX6pNJ1bBfZbumlWxX0KgVwa8j1uFHollq9IFL52AxP5SrcQ5cnM5nkVHrT7RnZcsND880NF2GiCxv5xQ4vMCEvsLJHYEEvsLJHYEEvsLJHYEEvsLJHYEEvsLJHYEEvsLJHYEEvsLJHYEEvsLJHYEEvsLJHYEEvsLJHYEEvsLJHYEEvsLJHYEEvsLJHYEEvsLJHYEEvsLJHYEEvsLJHYEEvsLJHYEEvsLJHYEEvsLJHYEEvsLJHYEEvsLJHYEEvsLJHYEEvsLJHYEEvsLJHYEEvsLJHYEEvsLJHYEEvsLJHYEEvsLJHYEEvsLJHYEEvsLJHYEEvsLJHYEEvsLJHYEEvuLOssGcEL22HkCiS8D2WPnyXl/us8CdmndYI9XDnZp3WCPVw52ad1gj1cOdmndYI9XDnZp3WCPVw52ad1gj1cOdmndYI9XDnZp3WCPVw52ad1gj1cOdmndYI9XDnZp3WCPVw52ad1gj1cOdmndYI9XDnZp3WCPVw52ad1gj1cOdmndYI9XDnZp3WCPVw52ad1gj1cOdmndYI9XDnZp3WCPVw52ad1gj1cOdmndYI9XDnZp3WCPVw52ad1gj1cOdmndYI9XDnZp3WCPVw52ad1gj1cOdmndYI9XDnZp3WCPVw52ad1gj1cOdmndYI9XDnZp3WCPVw52ad1gj1cOdmndYI9XDnZp3WCPVw52ad1gj1cOdmndYI9XDnZp3WCPVw52ad1gj1cOdmndYI9XDnZp3WCPVw52ad1gj1cOdmndYI9XyLfvFKT//V6uA6cHElfITx/ldODMJ7kOnB5IXCU/iMFEb+UaUAOQuEqyUIxAXCOQuFKSUIxAXCeQuFKSUIxAXCeQuFpMKEYgrhVIXC0mFCMQ1wokrhgVihGI6wUSV4wKxQjE9QKJq+YHBOK6abTEKv0ETsgeO08g8WUge+w8abjEXeACJPYXSOwIJPYXSOwIJPYXSOwIJPYXSOwIJPYXSOwIJPYXSOwIJPYXSOwIJPYXSOwIJPYXSOwIJPYXSOwIJPYXSOwIJPYXSOwIJPYXSOwIJPYXSOwIJPYXSOwIJPYXSOwIJPYXSOwIJPYXSOwIJPYXSOwIJPYXSOwIJPYXSOwIJPYXSOwIJPYXSOwIJPYXSOwIJPYXSOwIJPYXSOwIJPYXSOwIJPYXSOwIJPYXSOwIJPYXSOwIJPYXSOwIJPYXSOwIJPYXSOwIJPYXSOwIJPaX00o8D5eyVaR9M5ctzTR/8VlMpg+yVc5E/iqi2/DIF4TE/vIsia+jm45sHmZIRA/d4XYtl1PmC+rfyjbzQLQYynYZq8enlZuPKL6R7TLmi/vsJfj1bKcdgMT+8iyJb4geZfMwLPGg2x1QXLR4QzS2joN7oplsltHmp7mS7f3wc9IB2flJMnHH1JMtVyCxvzxLYvbhaacUcyIOjp0+9fORmwOxHQmXMbVks5x2TP1r2d5P2Ce625e/8KHUz970mNqy5Qok9pdjJB4mYW5N5JhRkpYlZAdzFreIWqFhE3KGyiE0Eu5LE5WrAa1k8wDDwf6I3iHayCYzJn7Zo4DE/nKMxI90F+mN0PlRCxPxZrnkQUXejIhvtUns6snlMtJc4DaVX9OLB7KluLeTmCktrAMPEhe4GInTOOcu8VZ+tmd2M0o1wdg3YuHug6DdiWkcRex1T6uXtL448d5L2oBbyRXlWBLnAzEkLnIpEs9jmpqt/RJfaw8zxjSVLUb0ZIeV2i2Kdf46HOvoy3l2PmFoW5evc9lLkCW0PQrkyXfJgjqTD8SQuMilSMzBTBpX+yV+lBhYivFGOXzPfzmnUMfE47o91kkKX53rw9hkEl9T/9EK5UEWiSPORvZhtz51IO5IGs4saCNbTGkWXgQS+8sREt9SLMFsv8SRygwsBipnMDwGRhbOAMbayI2ylq0PTIRe5nssVJCVLdWpbPdNbLOcOCr09QWjKA2xdiTmTGjO8peTvM5BILG/HCHxHS3ER/ZQtnRWK7crbgtGRDro2twSxWZkbb7YhnyJRpJmXOfT1qswGYDrJY8QHsI0xD6a598kHWuU9aMtLYlVF7KK4INAs1Dqbs12MIDEzIVIfKW++VLkDop2wYg23clWyvUiUfVKectOJ8lBz0onhnKMKGK6k60MudtKv16b+pIl95O0XQ+0JKnzg+oNkW3FVr1sekc3ILG/uEsc0UJyyJADm2yFN5lQiqLEIY1lKyNrYK1V/3GLW3S5dpuGM5aDyN2udELbVqMcOgKPy7qTJ9x0tD/njGJ+ADmlwimQ2F+cJebENP2x358TFyXmcKj/XvdKegP4WFBjIPxnsCNUJ2iZkBv10zS7Fyd9EatCBjDhIyFWtRhlw8mqJcmpt1xiRvQ4pumRoRgS+4uzxBurj2q/xOtigkmk09VpsQON3brnvFSHzzb/2q+y4pw8K4rFcJbxbjdkCx1uut0NWeKd3grl8F1yMCk6HITHFA6OC8WQ2F9cJV7GVqtrv8Qh9aW9FAQ6Ix2TbpNxOC34d8XWBdIbccWexa3SqgcOsUFbqz65o3HpXUxLbt6j7ZxfzqqN0yiH4ytb4keOwSzx7LhQDIn9xVXilT1YcEjiDK3TnR7ky7qYhaEaarOCZlt1GAQ3O5Ku7/RT9UcRR06rgMeCZTRRfM03lxT2dEZ8nSUxH46hkrg7MMeXI5DYXxwl5rzV6v46JPFAWnxSNXGvH8eNQjsQa4W3OYUmke73unuMsv4zw9UsGunbaFT6+89ZSdxLOpizHgkLPn4siacq41ESz2iwNzvZBRL7i5vEM8pZeEjiJCeWmBjpH+0gK7WczHoquvbH1ni0Yjpt604EKqnKXN5w7qEYPxYLk5n1lt+d6aab5IaaLTKJ17pbQg87jw4M9+0Aif3FSWJV3mAF4mMk5iRZ/4InQfRKF7BxArxTujPmOz/yCw3knsLDTUsZfHfd7bSU5f3H3STgRnWxqVdgV8tba6nEc1PTqSXupG1GByCxvzhJzO7dzLthFM1MqpD1E1/neolLJJ73WauWNeQRsa49zn1nUXQjT8K0o8gcJZ0oSZ5b40DiL41bIlunpRKL7a09PK1YTrnxxn85zJa2/TKJN6bsSEvMmcW2+Ex7gcT+4iixgvUrQ241XFsSmx/2KW04EGel6vNWSUZQBj9KsZjesp5RHBi5521OHkpy2bU+BjYq7peRSNyJTQph3t1VnwLXtBgS+8sRErel60yVG5BsMXKrIRvsSCTe0LRVTBHcuL2PNqF0H99QPw2x65F5ZkZ+GVJGtJUtzTq9o0i8HEtXs7w7jtwjR4shsb8cIXHG/pz4Nh3TSCTuUN8OxMIwlkMgh9xYQrv8ONhJrAukuY6ReH5nso7s3d3sDsLsARL7S8USP+5I3OVG166Ac7EsR06njVXwG4a9tOtOcyt2rpJSNAMnzLJlkNlUjJH4Pm2fpu+uxU3C8jS6ACT2l4olDpIRM7ZUMoFp6eRNomsRMmGVl1j62/Yh98rBKe6+sKokngScPLRMTQbfU/0ZBaoWv++SpUNif6lY4kUiLN/FNPyHHB5L6iJ2r4zytTv3QTrxiKMlm8YGymV2ryzzmIzV2PbangOSwhJ3+LDYKpFzdCfcUHTpo4DE/lKtxB3VxXXVDsMZC6Wv4TSU7dObOcokzvfWpQwHNLil4IbiktG4jDn7+aDWuFiUBFaWmEPuYthtm35CMz1pozoIh/17l342SOwv1Ur8SAttssKMoXEayv/p7rGl3Q/gLnFnQfdz1esRWVP1d1ExliWfqJn+o50sV6UT1+NsmCTNiRmnlBgSe0ylEs9jrZnq4B2bbt2VMmtkJs/dDCxvnSW+1c+pu+5uYrrbV7PzMKbYvOTDgHOPYsw2DbsMW2I3ILG/VCrxjRkwu4k2ZoRtwkGYA/Kyr4suW/YsD0eJ2UidRJj+ZzaVVoX6IMMmtppn7H0xGEPiJ7gAia3J7gprepKgM4UHa4abYs1tOi3mtSp/ny/svoOy3omixPNrlcdq22QQZaI6hu/ahRx2vmG5de2EMFRdDrkuEUj8BBcgcbFNv4MKq2rGnBVewymlc0BvWSq+aLW45HE5chnvdRT0WeGNSaTTkUCVLLCxVul72OL79e36JIYjM60s1692JD7YSCwBEvuLq8QLGT8o405LrOrTrOinKt/6abjTi6rYc0aJkjl0CUG+k1fF3HE7aQtas6bbrPFYcoqJLutkX3caZyrzWGQJNCdAufQFEhe4AImd6AS5SuDheGt5c82K297sLg6bDfZp5uOBdf9b+wgI71M722xwv5XzU5jkBllmBYntyVZuQGJ/qVDiIstc6jq5sR1eFtasYswSEhm54BrlwrhF7y6N1kVurZyjE0W5dxNlCwU5Aon95YQSH2Ie7j2bh6dAYn/5TBI3D0jsL5DYEUjsL5DYEUjsL5DYEUjsL5DYEUjsL5DYkbOV+NNrBel/P8l1DQMSO3K2En+hxzwNX8h1DQMSO3K2Er/6IAYTfXgl1zUMSOzI+ebEWShuaCCGxK6cr8RpKG5qIIbErpyvxGkobmoghsSunLHEEoobG4ghsStnLLGE4sYGYkjsyjlLrENxcwMxJHblnCXWobi5gRgSu3LWEnMobnAghsSunLXEHIobHIghsSvVSaxbUcAF2WNPAYkdgcSfAdljTwGJHalSYnlKcBhIXDWQuHYgcdVA4tqBxFUDiWsHElcNJK4dSFw1kLh2IHHVQOLagcRVA4lrBxJXDSSuHUhcNZC4diBx1UDi2oHEVQOJawcSVw0krh1IXDWQuHaOkBg4InvsxUBiRyBx9cgeezGQ2JHqdvlnodnv/gkgsSOQ2F8gsSOQ2F8gsSOQ2F8gsSOQ2F8gsSOQ2F8gsSOQ2F8gsSOQ2F8gsSOQ2F8gsSOQ2F8gsSOQ2F8gsSOQ2F8gsSOQ2F8gsSOQ2F8gsSOQ2F8gsSOQ2F8gsSOQ2F8gsSOQ2F8gsSOQ2F+OkXgWysYlAon95RiJBzRuy2Z13AWriWweYPI4k61dRtFmLpvdK3OcraL2Um+k3E+jK9nUEAW5y08Cif3lCImXRIuhbO/hYZCZ8RA+yJYiDPeoGtBAtorYcb9NNE5NLUB0L1tsL5F62B3dFe49oDj33olGsuUIJPaXIyRmkWwtS5gvKL6W7e5W5mUndOT6AiN6lK0CEa0yEVcU7w2cY0pfs9syQgcU6YsZAa1ky0B0I1uOQGJ/OULi+6eD18OCqCXbAW2DlDuiPUF8teObYT4luktzgn76tLuMdfA1sPnqz4pu9cWMotZEa9lyBBL7i7vEy5j256UJS7Y1MIlDQFYCPSTakw3sk7jb7XEKIebP9h4DjJF4EikCCtSfAU31xSjNYXYltrMVByCxv7hL3KOFbB2Es9KxzhyKEstWtx1ozxIGRjvhMcjy2+51TAuThExpEOawcxMjMb9CCan6RYnt8O0EJPYXZ4k5311IbsAsu9fUl+076st9NLeSUeyTOBK/9jCWuynWMfWVrldyW0Zg7qAxPi6DFR8E3ExUx4IcGY/8PgVIfMY4S7wRfQzDbihbCls8DqAmmO6TOIw2Ek7DcK1afzHFbbkcrqON3E3DFqsna9nHD7MtkdjQ29+wM9d0gpHSO+qTcj6KRsGeBmcRSOwvrhIPY2qxZCMa8b/XnGtydJTf6iinVMo+iS2GA4q31Bukue8O6ymn0g/FVlhbXnEShhxqWWKzwazMLatgX8POPvYMjt3FkNhfXCUOaKtaZqu0Q4y1fKnEYZ+zBW7YTcb7LWbmW5rKptCWnmHbSH4xHcst7BibSDyMolt124L078F1+imeAhL7i6PEnEzoYJj1JbxY4rnpfVDPOGSL93dBt3b6mNvS6askvuOMRCUl/GJaZgtpI4YztnVAK/53nfavSA7C72tPr0kRSOwvbhK3EyNGlUm8HhOpAWd9WKieud4em/i1e7KZkEis4WNBcuIxDSRpVoyTHw27JZk+LpNYX3waSOwvTl8ie9Q3OWeQjiLsSByZ1lf6hAclHt7zU+rb77Wicw63W+v+6qdecdXltp1OZGxyEvPBkEqctfDU+5HjLVJq92nM/95B4nPE6UscbvoySJuZWSKxIemqOCBxhxWmUXJYGLFmC6JFL+kSM09FfMhEY3pox+rwUMTaTBmX03CrjwZmTGOPxJpif8UCEp8Pjl9iMvK13S/xUMVNTlOfknjS5mhN26S/YZC02uZRzNePR5ES2YxY9/VTPOQacKoLzpaYs4nE4rF0mxny2hYlll4JSHwOOH+JhqzYZkdiw1MSh1Ml3SLrDX7IOhGWK6WxVaCRPAVLrP+q11fXWBLPOYATZxzqvXBikeOwxPrdQ+Jz4GiJk1/sPRLPLInzmGA+50xisZmHEi5ztLuTm22cZBRMmcTq9S2J27RY0A1nvPxmxqbbTMgXZUDiM8bpS2yT/nVnYukAWKz2SNymO9kqlmImgwr3qoS9dOxZmylPqnGQeEC3fN2M85C5dYQpSnPijRwv/Pot9Yfbk/zv04VNkNhnHCXeYb/EyYWHXBl8/hLfbawcshnsVls+LfGM4qW67lbd00HiYsZhSA+JA0Bif3GSuJPUNrDNZmM9e1Lig5TcLf/zr7EkFtP7eYk5I24Zd9XVi0I/se2mSHwfPOrn4czc1FAwjztj1GVAYn9xkjjlNivHrFniFCOxjGP0OBBnAVjukWIPVhdyYk4jnN5nRmMl/v21gvS/n+S6M+M4ie+ygYc9Eucu7KddLBBWtUWHJJY7me7dxPcwVilIKrGZx9dutfUbG5bWTggqrXAsXxMaK/E35ojWfCHXnRlHSbzk/TASi/dKbHWRLUdGr9XO73VJlp3vEtPsy4lF4uFCBeJMYgNH5xI9jcRLGU3hN1+Sgh+kuenEl7J7iT68kqvOjKMkviFaJBbvlVhlojdGq3tTctGjnYlNpQ27YyWeLfSQdUHiVelUQCXxehVLuc+GBh3qJz8qTjRX4iwUn2kgPk7iAd1f9cXiQxKHsW5TdYi2qmNtMt4JjkfnxPpvQeLu/Fa9FX3dnvki6VMGtFXDIuZ55gPa8Ic5KhQ3uGGXhOJzDcRHSbxRv94PsYl0eyRuscQsur5mQH1zF76isGLF0RKnObG6Jn/XJyWeh5EZedm2TMyOKJ6oyae5CP4EDZY4CcXnGoiPkXhufr3Xpl91j8QrWnHg3aoW1ibLIvgxg9yPd6nExYpLI/F8qSRO2SPxMJR3c6+H8My2vrJzZx4Y3CTH0YORe0qLXN/1YRossYTisw3Ex0jco4UWkTNj1o0lvjbRUaYEGVZ0H5h5Ghyys45aFjq7wORn7Am5eyiUxPNRq9vOVrDYKv2yglBFLidm39vXur2XoKsrgpvsmrlM0Vum+b0LTZbYhOKzDcRHSLyOdQUZM1KRjCVOsSQeUUx9lQizKnYd8MrE0AT+9U8mSwvjkoWllMQrOXRskjTDYEs8HKtVse6StS80rUWUxGDFkLMcYzQLny3P8hRNlliH4vMNxO4Sc2BNFk1b9vtrJfFdol8m8bxPphE3Z5vtxhznGJIgHwHLyvLvtr/2Stwxs/WGCxpkdk5yB8G6T3FSBsqHklkjw4FGS6xC8fkGYmeJO2pSp2x3r3nLzom3ZoO55r2lFbk3lb8ZKuzJpjOcmBSfRjPOddmlEs+j5E12YlpkC7RZTNRPQOatupQtqXmQRkvMofiMA7GrxG2OX/mpnJ20Lu3RXndio6WblwTQnmlODZ/4AR9miQCrSLEdcwU+Uuz4KRIvN5z8JqtycrylwY7GD6pgOTexWnVqLJw0dpaYnxG4IXvsxThJfMVZcPobLKhuL7PFwpoNjXL4amAvtyrMt7G6TWlzkDQ3WHIYjtNLQkCBUtvuVtBxeaP7ILLJpkN1Ob63H/6gi0NlVlSCsj3X17EPSFw9ssdejIvEE/72iw5318H+tXM2cVm7/0pHSXeJ+ejYeVU9pa6wLGusMuQWXxvYvxXzXjHqqvssdp5wGZQlLLscIbE8wivccqZaqTkST+5zLamnGT7u7YE9Ip3ornbz2nk/mEb5o0f3e8zvgmLQXrasA0JzU/q2JAN5goZL7CE1S+z6RfuGc/+ZA5C4amqXGEDiqoHEtQOJqwYS1w4krhpIXDuQuGogce1A4qqBxLUDiasGEtcOJK4aSFw7kLhqIHHtQOKqgcS1A4mrBhLXDiSuGkhcO5C4aiBx7UDiqoHEtQOJqwYS1w4krhpIXDuQuGogce1A4qqBxLUDiasGEtcOJK4aSFw7kLhqIHHtQOKqgcS1A4mrBhLXDiSuGkhcO5C4aiBx7UDiqoHEtQOJqwYS1w4krhpIXDuQuGogce1A4qqBxLUDiasGEtcOJK4aSFw7kLhqIHHteCLxfN/C4bNZdrKHUC+lv3ex/iO53vdE85ctvV6lxMAR2WNP8SyJw2jtZsSQ1Gmshnc75x55zE5C3L2j6bD7MHY6F8mTPBBNy8/OchuXnmbNFUj8GZA99hTPkvim5HRTpbDEA33q96JXEfVlq3tF1F+rM/wUz2KSMSyczzXYyomGl+ZUxxpzDR8dq9LT1lzF+mwpxTfy1ElZUqqT2EvefysbTeRZErfTswI+wVyfOqoT71gcZee6ZH1VanFHi/0+yYGZIWcWUmfTFGJ9xXxROLd8SmDOnSb3TrHPq30QSOwvx0icft9rIseTdBnd1nHh9GZsbnJyYtZOnwhz2Ke77Ek3kcTXMLxl9/q0UZsrGuirFkkuElJsQvNATrG5IRqba4I7Gltvko87Lb64m+KcxEBifzlG4lY8Mj/jofOj+kadNvXzyUIm8SYJhqxZdlrXsTimSU/DmjwqPbVwmJweNjQnO+YjwsI6GzEfIvLW9b/CY+6s9IeBxP5yjMR3RKZt5C7xWH74b/KBOJM4CcTMSp/D1XAfBFG0on4UjQK+p4PE+pYWxZLnLPvpYcI8ZK9iwT8o9lm3DwOJ/eUYiWOamo39ErejW/2DnzCgnmyto8gSOZU4DcTd7iR/Om5LUVeJOUWWZFmlwFkafpO+c5vlouzafUBifzlC4k4SiA9IvJJf8lK0eevHiAloHEWtthJpqy6nrALpeGCOlZgbkPfdjb7pxspN5o9EQUnaMKWxa6uOgcT+coTEN+mZ1vdLHCk5LQY0kK2enF2bU9+UqHsvWxYr/UQKW+JCw65M4k6fxpMe9TngX8VWX0eLaKDe+E5GExdD/yEgsb8cIXFACxGS461sMVNJDDS3EisTop0O5Vwk1l1k2s808dhkaaotcYFdiQeThR5Y6as+trucoLdb5e+S7m2N+TMcNbwCif3FXeKh+LOL3EHRLkhcvJxgEoPhgu6S1CBI09kUW+KB6jUbkxn1iDOJuemnWPFdhyPVEcy/EtOoTFAOyP00Os/5J2BRHPg4CCT2F3eJbyk2whQiccvWtCht5mEeLfFkTPGVo8T6Tjs58UwOIyYdAdyoS7sttmVMd6nDV9zuU/c6QmNI7C/OEs+3WVPpQO9EQeIruedsk/dF6Ti/UwHzRRJ3omjGmfLKDIkIStDdAcUWxUk2MVFB+Waj+pQDeaKngcT+4iyx1Rd2QOJ1QeI5kX7UlOhRXyEoHZebBQfMF0msifR4csJcd5D0i0/W0QPgiuVtn2jE72p+o1LtwLGrGBL7i6vEyz71ZPOQxOydZBmjQHu0MN21fVrkSiSNjhO+Li/xMjThshO0ZLCjFbBv7hKHW6LVjWhqMTDFGle3A1vxttJ44KQxJPYXV4kfaZF1tR6SOEN3+N7pQTGOg/nQaHRUz1jseDBC2s/DWu+TOAxZVUvipWqvrdlVzlT6t1ZnBCcQqutOP23cyvye38b8CJexZ0jsL44St3Pt/UMSm55c1Zertb3Xj9tQPy+K0nF9r7ySjoegT1vd8WCEHEbRTbihRXgTRRyuOVyqG7PeCTkkHtXBkUo8U73OIx3x5z2l6zaS3Fg19nT/c5RTWDEcuXW1QWJ/cZN4HefC1SGJTaxUcmrRIt1RMC2WLkS04BCs7pFPJ3KkOfFEGZlDvItU3U+kGnbhDQttpwYdTsOTsmc+BGMZRNnkFVbMXAIxJPYYJ4knnGPa4eoIiUPV97WMrUIGZt3SSYQeg3CReK7TBqWrefZQMme+gi2N1HMRhXEhu30IpLiTc4m7njUS+Cwgsb+4ReLuw+28G0bXJlPg33mSLf65l3sYdiSeK39ban6HsLyZchrKKav81LtInJBInMJBWP2jSoj7w+tZWycbKR2t/jwgGi/1PV8CJPYXR4kVEvGKyK2Ga0viRM4NB2Lp3mJU7wD1ByX3e77EyYFk12UwEq7X/bhj7skZcHGiUxAM8ofhPiCxvxwjcSoAiyhbQZB/fDbYkch5S6tbO6Fm0bbteaaj1PaktRNW3nG0xNdpszIMr6WHmlnyO0kkFr9tIDFzKRJn7M+JN+mvdiJxh8YLKxB35ys19dmWOI+l6dESZ8mM1lW2NCIxZ9eGpCCOsXriDgCJ/aViiR93JO5yozDLiBNsiXNdbGoeR0IqcTJvLuli4w1zw9ESp+wcD08Bif2lYolHMpVNjTdLhJuWTQKyJX46J5YgbWNusCXeXEHi5wOJM9J5yA9EZpx5yfnCbt+su8SdVbvLv/n6iuRRyWWjppa4PeaDBhI/G0ic0lHxt7N+6K63EkVVB1dJYaSjxIv2nd3w2jFPJO5tVGY9h8TPBxKntGihTVaYxtyKFZZ8wq4AcpF4fqufZ5utPlUusR5hplVHvS9I/EwgccK8r4aX52owY5E6vGE/dRdbO8g0flLiTlsPGy8e7aG+MomvVajv93TGAomfDSROaJvW3CqKjJiqtpeTgWFMI7a4ZRY40dgS892ZMU31X/1YfRxQrHvjLHbM0/USNN5INzQn0fIcUdSCxMdwARJ3dIdqijXsLGiLOv189vuwlYSW5R4MWdds0mjPkriIeggruL0xgfsh68jNzFuqpt1cP3aQRXA+uGzkWg0kPswFSGympB1AefbQT9ffUXTUFAspG+K0dcEXTXZ7FYbc7hvpbSWxGbET2iaKL1fpbOVdyw18041dtsasaSFPo0fs5FqNrqYLk75oq8tZjT+a343DQGJ/cZZ4t+ggQVVDsMSydmqC6lrrp4YpoZPBZ1PhkKyRMk5WZNnHOF0i0IJjvLrt3hoKZNrWEN9VvmdPR95CpE6BxBeYE5cTDnK/2MPx2GqUqbJ0UXzCtvfT+uLinI+XsFGdIwILm28T3vErS5QuYveb7AMS+0uFEnOSKn8Nw5wbV4/p+lTttRX6AjMXrxLCKOtTZmHt11cLU7wISOwvlUp8zkBif4HEjkBif4HEjkBif4HEjkBif4HEjkBif4HEjkBif4HEjkBif4HEjkBif4HEjkBif4HEjkBif4HEjkBif4HEjkBif4HEjkBif4HEjkBif4HEjkBif4HEjkBif4HEjkBif4HEjkBif4HEjkBif4HEjkBif4HEjkBif4HEjkBif4HEjkBif4HEjkBif4HEjkBif4HEjkBif4HEjkBif4HEjkBif4HEjkBif4HEjkBif4HEjkBif4HEjkBif4HEjkBif4HEjkBifzFnXgEOyB47TyDxZSB77DxptMR+ct7C+AgkrhxIXDeQuHIgcd1A4sqBxHUDiSsHEtcNJK4cSFw3kLhyIHHdQOLKgcR1A4krBxLXDSSuHEhcN5C4ciBx3UDiyoHEdQOJKwcS1w0krhxIXDeQuHIgcd1A4sqBxHUDiSsHEtcNJK4cSFw3kLhyIHHdQOLKgcR1A4krBxLXDSSuHEhcN5C4ciBx3UDiyoHEdQOJKwcS1w0krhxIXDeQuHIgcd1A4sqBxHUDiSsHEtcNJK4cSFw3kLhyIHHdQOLKgcR1A4krBxLXDSSuHEhcN5C4ciBx3UDiyoHEdQOJKwcS1w0krhxIXDeQuHIgcd1A4sqBxHUDiSvk+3cK0v9+L9eB0wOJK+STnL5T8UmuA6cHElfJWzGY6K1cA2oAEldJFooRiGsEEldKEooRiOsEEldKEooRiOsEEleLCcUIxLUCiavFhGIE4lqBxBWjQjECcb1A4opRoRiBuF4gcdW8RSCum0ZLrPNP4ILssfMEEl8GssfOk4ZL3AUuQGJ/gcSOQGJ/gcSOQGJ/gcSOQGJ/gcSOQGJ/gcSOQGJ/gcSOQGJ/gcSOQGJ/gcSOQGJ/gcSOQGJ/gcSOQGJ/gcSOQGJ/gcSOQGJ/gcSOQGJ/gcSOQGJ/gcSOQGJ/gcSOQGJ/gcSOQGJ/gcSOQGJ/gcSOQGJ/gcSOQGJ/gcSOQGJ/gcSOQGJ/gcSOQGJ/gcSOQGJ/gcSOQGJ/gcSOQGJ/gcSOQGJ/gcSOQGJ/gcSOQGJ/gcSOQGJ/gcSOQGJ/gcSOQGJ/gcSOQGJ/uTSJl/L3aCCxv5xK4kl0Hc673aFcrIlW6+ZKNpnHx7VsZayov5HN44DE/nKkxLfB/Y1sHmZIRJ3uLI7kcj3cEylvhxN9aUs00xsWLLEJxg/635ShOuQOAYn95UiJ20RugYwlnna7AdGtXHFirlrq3xUF/O9ku+3wnzlRT12ZI1JvS2HOiGQBiRvL8RI7ZghEbdZpoP/UwEIfLSt65H+nRCv+0yl7r1EiNtEgyLijvrl6L5DYX9wkfriWBlHoLL2xdzgu+Um3GO5raD2YjMCZGcWcDa+I05eNHDht2uqbckTqHoo+hWZDM6SxbO0DEvuLm5SPRCO94S7x2Jh01Z9mOt7qqJeE5kmP4zTRtlWIlw+9O/37PrjPtcs6QTAq/OS3gixZmdJgriV+iEmnFpwglyTkqcRjSGxzARIPdJxj3CUeSB5hG7rScopFswVvjzlS5/PmzkhdIyysW/ildbJgEei0wbCM+x0t8UiOt3mfCo03BSQu5/wlnseJPvsljnSUzejTVrYY1c5irsIwXIhFw5jGOtGY5fLm65hjc3Td6c7D2xVvZ3FcSZwTLy9xd82ZiZJ40jMPCUu9TCW+g8Q25y8xN5HkG98vcUs5tg/Ll7FYNKKF+Dm/ozhRlRuOVpfC1ZaNTm7ilw5onDqtSCWeRYYBBbKl8ot830Sb1OE0pjH/y0dNAIltzl/i27TtfiAS04DjbMaURrIVziIrpxCJ50TX+jKzTPvtrmJa2G7N+dBIgi2/dCe2Q68lsclTbNSBl/0UjDnUq+MjRUmc7514aj9AYn9xknhLffmy+adftoKAc1q5XbHRXbQZt0mHbAGRmB3LxtamgQjNT287zEztH4HhjRnMSEglvg1WHH3Vj0G/p+LwKODbbFjiZRhyGFfpxDAMl4XbmVyM3wUS+4uLxA/yNe8id1Dwr7VsGa5pIFt5ROLrstGFtR4hycGy35ktJTGrlyQhilxOrNIS5s4cG/z8G/0zsKK7MFxLUm7lxEk6cbNtXXECHmLErrm4SPyY+WilExzP7KhZlPiBFrKVRyTmJyrEXOae4tS2BA6vJhnREi/7trd5ifnRSuNYjYtzXiKHw2O+S2NHYs4y7CfZCyT2FweJl3E2XmFJXKAoMSe6+m90F1k1OanEw7IB6ZyhAj+PuaOWWDmXJRQ5iXtEsxW12OPH+WRMseTh0/zr7EhsnvZpILG/OEhsBeIDEocFibuxkYNzT9HGIBJ37ygu1phx6rArNpudjrOoJxzRIh3lsyXeqNdZUTTnLHrQaQfJiw6yBqQilXiQSvzUgLMBEvvL0xKzWtnA8SGJM7QnZjRhHhfkTiQeLii+zTemOMqWDFEPpPdLJOaE4l5fZjKJlyOdTq/UFZyA8FHX6Zl8Is4PeWiJ15xxjCVn3tBC/w3D2aHxcUjsMU9KzM0lq4XmJrHuMAt0COSr87lvInG30+d73l9b7albVb25A6e6+q9IrFRPYmsq8ZqfS41J32vBNyqzvjJ350Mw12JjiZdT0hLvYOUmu0Bif3lS4vtceDwkcRJxpWpCF+NwWCyMIqQSd4e6d7e/SiWPSushOdfVATuR2EooEonVAaTrKlqBLpvQN5u30S50kkQ0iPWxQnSnOwqz7sM7SNxQnpKYFbItOEJi03E8SJ0VMom73cmN7q0dyA8+S2w2cvC1WspU4iyhSCNxO9YOP46swP6obyx0Tsz5mKSpep7k2YoN0n1AYn95QuLh/SKXpx4hcYfiufo1N66k2BIzy5uB9IrptlnhzopHeclU4iyhyHLiByUv59/9rLE4078B8maEmwUHYJ2yTJIPAok1Z96wu+IvOghaaiAsijgDMBvRY5D/8m2JjWKqZTfdUaQgMTPj9FSnFNf58TghyDfsFPcyxyiTWHOTy79Z6ZnKjNO+jOWNzoPNy4dJNzYk1py5xAz/opchtxoyGZIiR06Kcz0bhl2JVRNPpyysackEvrEM2VkSLxem2y2ReD3Sx9WWFvpvNNU9dVO+020y3qcTI6JeS17+NsmSovyBsBdI7C9OEofGDSaLxIzcamhLd24mMWs9LTSrmBKJk7R3kpSz50iqiC2JVcxWWUIiMecXeXRA5yPowcxa0nRiNSSd9BNPadXWHyKggf4blby0DST2FyeJM9gk2SqSRbRE4iHFJWPLZRLzs+q23YgWO90Ts+Q5bIkloUgk7kTRRlUqm7q5VdIhwocQxWk20b1WPX+JxAtqcwpu80RWAYn9pTKJ79NugEUyvMAp6G4lW19i49wa6BiKqJzUFudSzwdJ8pqT2CQUIzsVmEnhxTyNvhyKd3IFkZhfcdi2i0f1MMkhILG/VCbxXeIft/tFtmnJ4IXUEc/v7PT3QZpfy36uSE2hR5M1OYlNQmGbx+6ahGCTPUcgEd5CJN5wtM416aKyTMYGEvtLZRL3k54FTlBNTvBQlk2wr5I5WAZtZFBOPTbXrasi7kAyjLzEHPnjoS0x59X6ifkRSacaZ8E7PwVGYm18QWI5VvYBif2lKok5dV12H1bcPuL2k76GbSLaFnPcqaS9HEnTfouks4EZpYFXs15kxZkFiflBQS+TeM7CUnAz4RdI+iPmW5XqFtZPMbJyfL+CxDaQmGE5dabJxDr8TgbU5xxXq9FJizHZHpN1cD5h7sePCtK6ye6SM4C7JAWY94j6qeoFiVUF/diKxJP2vfL4Lk1h5nxArDk+5wvjjKwDFaEhsQUkZvmMnH1VC6FVUw53uj0z1X/DKobbSE3kTLODJTf7gujmOnpk96z8WM0xGj/yfUdqaGKb1SIXJeaMuNBum7T5EKB+T99NOcxPq/oE9Y2ClpWv5GMDEltAYjWSoCcsd0IJgw9bijmg8i/6gq9RnV78SEU2Bd/U/yiSGf2GBzVT3zBoW9nIjsQTzldyEncf9AQlnVdP2GGdSfDfldVYVLLyC6v0BRJbnLXEZkQgRQW2PFoQzhLsxr3KA0zJe6dP8fUyZp8mt6NgGuWGlYdqRme0KXYgdCezqMX33eTc7k52psENw9CeNLK8J1qsJzdj/lHocBg3VUKct9A2e4l7ijgd1+lLO61fY8bF5LkIJPaXpyRWP9AHUTpw5mm14JYRh8ixGMiZK6euZXXClbJcRyMO4Cbmtpc93r6XdzRRH2GqbB/qqfkbDtg6Ty6M8+WD+g6Q2F+ekrgV3EvILaMXBMtu92qRrHKlUdnoXTpQdq1q39MChhMx0R0RW4nzaoEsKYxTzPnnI9B2qyx7keYkN/aCg72ScZkckNhfjsyJy5lHyVwLzXyUREHF1Z1Oj0/LcEFB2o8xuaNx7hV7K/N+enfBbTYMHdnzsc3KxgeAxP5SicRPcGVnrieiYycs88LkvXLCQgnTYSCxv9Qh8VkAif0FEjsCif0FEjsCif0FEjsCif0FEjsCif0FEjsCif0FEjsCif0FEjsCif0FEjsCif0FEjsCif0FEjsCif0FEjsCif0FEjsCif0FEjsCif0FEjsCif0FEjsCif0FEjsCif0FEjsCif0FEjsCif0FEjsCif0FEjsCif0FEjsCif0FEjsCif0FEjsCif0FEjsCif0FEjsCif0FEjsCif0FEjsCif0FEjsCif0FEjsCif0FEjsCif0FEjsCif0FEjsCif1FnesCOCF77DyBxJeB7LHzpNES+8l5C+MjkLhyIHHdQOLKgcR1A4krBxLXDSSuHEhcN5C4ciBx3UDiyoHEdQOJKwcS1w0krhxIXDeQuHIgcd1A4sqBxHUDiSsHEtcNJK4cSFw3kLhyIHHdQOLKgcR1A4krBxLXDSSuHEhcN5C4ciBx3UDiyoHEdQOJKwcS1w0krhxIXDeQuHIgcd1A4sqBxHUDiSsHEtcNJK4cSFw3kLhyIHHdQOLKgcR1A4krBxLXDSSuHEhcN5C4ciBx3UDiyoHEdQOJKwcS1w0krhxIXDeQuHIgcd1A4sqBxHUDiSsHEtcNJK4cSFw3kLhyIHHdQOLKgcR1A4krBxLXDSSukO/fKUj/+71cB04PJK6QT3L6TsUnuQ6cHkhcJW/FYKK3cg2oAUhcJVkoRiCuEUhcKUkoRiCuE0hcKUkoRiCuE0hcLSYUIxDXCiSuFhOKEYhrBRJXjArFCMT1AokrRoViBOJ6gcRV8xaBuG4gcdV8QiCum0ZLrBtRwAXZY+cJJL4MZI+dJw2XuAtcgMT+AokdgcT+AokdgcT+AokdgcT+AokdgcT+AokdgcT+AokdgcT+AokdgcT+AokdgcT+AokdgcT+AokdgcT+AokdgcT+AokdgcT+AokdgcT+AokdgcT+AokdgcT+AokdgcT+AokdgcT+AokdgcT+AokdgcT+AokdgcT+AokdgcT+AokdgcT+AokdgcT+AokdgcT+AokdgcT+AokdgcT+AokdgcT+AokdgcT+AokdgcT+AokdgcT+AokdgcT+AokdgcT+AokdgcT+chKJ5/LX8CB/mw0k9pdTSLxehLKl6NBgJpv7ocFKtnwFEvvLCSSe9Cm2tJ0S9Z8MxkRt2fIVSOwvJ4nEseVkh+huKNsJ82giW7PbUOceC9KeT3L3bN9HZbRacruhHW3CXa6jjtxeEZDYX06SEyuLb2U7oG0+RWaH72gqmxHF2tsx6T8hUU/9NURy7q0iI7ndEMi1RSoO7ZDYX04icTfsE5m8+Ibi3ZC4IYqSrUD/FYmviK70Zc2GBhJXbUaUT59bQU9CtM00WMvtFQGJ/eU0Enc7fWPpME50zcF5ssma2xKTReJh7u20xfA8KztY1wck9pcKJW7L7/h+0l/4+ZZiHXLbElaPkrjssDg5kNhfPo/E3avYhGBI7AmQ2LA0HQ17mYRL2WJm9/rONzTSie6CrtWf64LEY8lwbQaQ+ARA4mOYZB1i17OSDggdkQ37Qjskrh5I/CSdoLeRMM0ZQ8qqezuS+JoQWNEakbg+IHFGS0xTWGMSbO6dbC6DqdweBUlf8h78zYmb/I2XA4kzphJjFfdyHcMSb2TzCJ6UeNKWxGQfFQ54WBJ/+9X5RWVInLGilfgzoke5TpEbxHDlSYnt1KSUsdyxAlKJWeEzTC0gcUZmmGzdBSs1YpdrsBk613M1Jh0UyRzdJ3E6Yjccy2MSiAayZaheYq0wJPaLU0sc0EI11WyJ52Yc+pbim9K6h1TifbUTSeHFLslg9wnQ4orCkNgvTi2xVDpYEg+pr/8+WpVB7dIffiWxhNSMMV8nt+9yWolThSGxX1QucSBdD9ITJi7bkXhsyi4HdK0vKlaH2n3rIFL3HAX3Txp6Uokzhc8RSJyykl2i2CdxS181IUqKirvLOE63d2mTbiOupNyi+7CTXqczoE4q8a/v5YMxsveAF1QucdY7sU/ikAb878zKClqUr3MXlvd65CMkUnlHTx4wH/SL053SGVAi8VWw6/lLUeJmGsveA15w6py4ROJ5rGJwS5XNs59FYrkXJ899k0/zndSfSDqeN3ynQrx9JNrqKG1umfRpXLnFRtxEY73vgCd8Bom7d6qYeKB6jkOKdVttGwQD6vPmwG7hTYlUR0ZorouM0vMFFSPxMk7aiKI3JyCVW5yIazQ228APPofEKnuYaDOH+t9I1WiGOlsI0+FphuVUiUde4lui4pyN+yRbTiTuXseVW5yJqzSWTeAFlUucsVfiNrs502lwicR2/xkLq2+xJF6bVp4NX3Ujm2misa7cYlvcX9/LBvCCU0t8byYT5SS+4l//lo6nT0jMqcNinpP4itPdtHfZMBlnM0ezbLlyixF9/eXU6URgkoCcxF3eHsfKxSckVo24jS0xC2s6mTMmAzMmqMkkrjwvhsT+cmqJB2aQOC+xspevfgifkphDcbzMJJ4HuSn9ivkomXOqsCTm+1dqMST2l1NL/BDqSomixBGNRjHdPCUxtwG3V1Ykvo0Li1hcbXNa2xJ3H6m/u1rAs4HE/nJqiYVU4uU6ikZsnmJ89aTEy14hJ85XdF7F+XKgnMTd+wodhsQeU7vErJ0i6M04kzUS91TvQrnEClviIsP7gR2a8xJXCiT2l7ol5gRhfL9JGmdGYn3Xtd48VuI8HUh8kZxKYm6DWYVpw0ziiTUTNInEAd91HahR5WuRuJ3NxItW1Fd/Ahroi4pesOP6bRBFYzPEdxIgsb+cROKWzhhMp8FyFobr0Z6XSWqLNeE6DAdSILGvHj5D381iPlDX5tcarBJI7C8VS3yvx9OWyqekwbVQF+zRZIsHU6BmmOk7GvXbjxJz97E7u4O9D5J1AU4AJPaXiiUOjLurUZSOSfSUmqN8D1tCaHe9TYj600Jtjz9AYn+pWOISOtFNeKDk3aKk2t0fILG/nF7iMwES+wskdgQS+wskdgQS+wskdgQS+wskdgQS+wskdgQS+wskdgQS+wskdgQS+wskdgQS+wskdgQS+wskdgQS+wskdgQS+wskdgQS+wskdgQS+wskdgQS+wskdgQS+wskdgQS+wskdgQS+wskdgQS+wskdgQS+wskdgQS+wskdgQS+wskdgQS+wskdgQS+wskdgQS+wskdgQS+wskdgQS+wskdgQS+wskdgQS+wskdgQS+wskdgQS+wskdgQS+wskdgQS+4s+TwZwQfYY8A75gsDTyB4DwAkIAxoPJAaNBxKDxgOJQeOBxKDxQGLQeCAxaDyQGDQeSAwaDyQGjQcSg8YDiUHjgcSg8UBi0HggMWg8kBg0HkgMGg8kBo0HEoPGA4lB44HEoPFAYtB4IDFoPJAYNB5IDBoPJAaNBxKDxgOJQeOBxKDxQGLQeCAxaDyQGDQeSAwaDyQGjQcSg8YDiUHjgcSg8UBi0HggMWg8kBg0mO/fKUj/+71cB0Cj+CSn71R8kusAaBZvxWCit3INAA0jC8UIxKCpJKEYgRg0liQUIxCD5mJCMQIxaDAmFCMQgyajQjECMWg0KhQjEINm8xaBGJyYV6+/ePP23bsvde7aLL569+7dmzevf5JPAi6T395/JUI0me/efvtKPhC4MD799UEpELTaYRh2us3jit/3dS/o84f4+PM38qnABfHHL/zdj1tXIkSTGW4G/Fm++uJr+WjgMviCg/Ci1cTwW85ws+Vw/AM0vhz++SPRtj0XAc6E9Yiz42/lE4Iz5+v3nEfM5Ks/JzoB0S+/y6cE58w/P1DcO7MonNBe0EcE4/PnC6K7c2jNlTNZEf2F/rbz5tVbotaZhmFD+0/68lf5tOAcefUv6p9jNmzT2dJXsPh8+fpL6p9Pt9o+JgP6Cs27c4UdHp+/w9ri71A4d568ekfjoXzP5818RB+QUZwlP1+Kw2zxHX2J0bsz5N/0j/PtWisyGdO/5HOD8+EPikP5hi+BYZ/+LZ8cnAs//Te6lu/3Mnj4k/4pnx2cCT/TSL7dSyGiHzF0d1b8Qf2lfLmXwnyAhOKs4GTiRr7by6GDhOKs+JkC+WYviR4SijPiN4ovpYfYZr5FQnE2fP2BNvK9XhYPhITiXPiB7uRbvTR69KXsA9Bsvv5Il1D2U8Z8Qa9lL4BG88VFtuoMEdbQOg8+0LnXwe9n+Sdhlasz4Bsayzd6idzTD7IfQIP55UK7Jgwd+oC+4sbzieKznhj6FAP6u+wJ0FjeU0u+zsvkGr1sjeenj3Q5pfBloJet+byhqXybl0pEP8u+AA3llwvuXzMM6Ts07RrN1xRP5Mu8WMbIJ5rNtxc8WpfQQi1bs3lPt/JVXi4h+ieazXd19E3cDApzUGO6O3TshIsgks06mMeElVQazK+0kG/ylNwRbXMDKmPqHyrCH1K9M6+nhLPSNJhv6uhguyIa5J0dUE+2SllSvbWhEZLiJvNDHSlxj+JCzhJQW7bKIap1ttQMqwE1mXe0li/yhCx2BraLEi/DfD9fQeLizVUzoe9kf4AG8p90+l7iGS3Ui9hJcVHitjrp4yFOvMDWGC275vJTHaXEA1PqOe5NupubUMM5sdkIN9pmlngRWBDdyZaif3KJp/Sb7BHQOP5Zw1DHzPRMzNjTzlgCq0XpG6g5J+62CKdUaizf0Eq+xtMxMMUZA+LXug+CXsSMaar+RI9BUFoHWrfEt/RG9ghoHF8c7uqqgplZDuCBaJRlxZ71TnSv6b3sEdA4fjj5CmydvunynVJsLVhYKnFHB2cNUUu2oqiOuVMP9E72CGgc70/dwzbv00KZ2KPcRL5Sifd0UdQxi3VIP8oeAY3jX6du9qtU2DA+1MWmCamvQy+TReKgliq7IX0lewQ0jncnl3gW3EfR9TrOl97vkTgNullOHNUy8QQSN5gva2pA9SSeDqNr3Tuc9BPf2DnGHolP33/CEMkeAY3jq3okXsaxKegJJbdIsRNeSAyew4d6JL5PevI6QTCSZJdpBcG9uV4DicFzqCcSz/Ktun3skbiW8+FA4uZSi8SThVtH3rWkGAUGcvNJgcTN5V0dxef3pJOGh+snZmt8xn7iJWoxm8vpu9i6y3uiTTTaso6P3e7QPmjmYa5OeGkuzAOKiVq0kB+JOtYnQhdbg/n59BKzwwmbbvdGNhNKXp4fMOOceErb05c6J0DiBvPXE4U4FaCShH7Quw11RA0pliJh5i5rv2XcEr8nvmEytiuGTkyHfpE9AhrH96efYjeJZpapVg+Ein+780rYeX5Lyu6HmFZ1WbzGcmzN5VuVp9ZJUWLZSmGH1YoTOkSvYwpqyihusFx8c3ld91nJn5B4oyrnGZNnsMXb3XzjFPToC9kjoHH8Slv5Gmtg0nlK4h6Z3jiRWFncr6OcmBuTWD2ludR2qoNJe6oShUMSX3FDb2rejkjcvdoSDR705kkZ0CfZIaB5fFnLUjvza93R1j4ocTumOOkrSSTuTtQDp6deG2Mef8QKxc3l/cnnJw2vWxxhifqrGUfZvRLPBkR36bhGKjGnyTE/eHzapOIBy2I2mb+fuEhsuVAC0+JRRjWKtZjm2u61mgDSyzIbS2I95Dc47bDdhv6S/QEayKdT19dwFI7vs3SgONghXWhXA1rYOYMtMT9oZF86ASucBazJvPp44nWsNuON/QKzQjqR2Dm8t+81z0t8csZo1zWadyceeC4cIm3qyxbDuUV56QbbXUd7M+EKNWzN5ot6Zk4kdCJrCfhJvoot4+Hki6/luMXSKc3mdzs0XigBVmJrOF/VGvR8ZPInfS07AzSTvy781M4qT0cdZsO59JPsqzFndLA1nV9yq6RdHg/0AWPOTeebOivZPOQetcTN59WHiz5F+fJPnK/jDPiiljX7fCWit7IfQIP56WO9pz70ivkC55w5Cy65l22GKszz4BPFp60C8pg7zK47E96d/vwznrKm79C/dh78k6iGiWweMvkv+l72AWg6/zYnTLw4VhhxPh9e/ajXLLk01vTxd9kDoPn8k/68vG42JBNnxr9pcHEJxQqnYDwvLjCh4GQCA87nxcUlFJxMoATz3Pg3ja2zL5898wDJxPnx6peLSovv6QOSifPj66/qXuj1MxLRR6w1cY78/p/1zt//jLQJi7meKa8/XojFN4Qe4rPlt/9MVgg+ayJC7doZ8+k7Cs69j2L+SFgt5az59IEW572aynBAHzGZ47z56Z05gdG5MvsH/Yh+ibPn3/WcJ+OzsJwSvcWiVRfAbx+IHs9ywtLtP+gjuiUug685GPejc2vgzdtjon9hmO5i+P0XovixjhPc18XydkH0FVp0F8Xrt0S0jc7D4+VNwJ/mS3SsXRy//vUdf/OD+9s967k3hHDzqM5B9vHn1/K5wGXxzXvlcfP5+PMfmJl/wXz64827Jpv88d0Pf0cMbgB/+9v/HwN+jWLv2//+AAAAAElFTkSuQmCC;" vertex="1" parent="1">
          <mxGeometry x="470" y="380" width="708" height="1586" as="geometry" />
        </mxCell>
      </root>
    </mxGraphModel>
  </diagram>
</mxfile>
